LibreFranklin-ThinItalic.ufo
<glyph name="exclam" format="2">
  <advance width="232"/>
  <unicode hex="0021"/>
  <guideline x="75" y="105" angle="90"/>
  <guideline x="157" y="114" angle="90"/>
  <outline>
    <contour>
      <point x="111" y="10" type="curve"/>
      <point x="120" y="70" type="line"/>
      <point x="120" y="76"/>
      <point x="118" y="79"/>
      <point x="113" y="79" type="curve"/>
      <point x="65" y="79" type="line" smooth="yes"/>
      <point x="61" y="79"/>
      <point x="59" y="78"/>
      <point x="58" y="71" type="curve"/>
      <point x="49" y="11" type="line" smooth="yes"/>
      <point x="48" y="4"/>
      <point x="51" y="0"/>
      <point x="59" y="0" type="curve"/>
      <point x="98" y="0" type="line" smooth="yes"/>
      <point x="108" y="0"/>
      <point x="110" y="2"/>
    </contour>
    <contour>
      <point x="117" y="155" type="curve"/>
      <point x="209" y="735" type="line"/>
      <point x="209" y="738"/>
      <point x="207" y="742"/>
      <point x="203" y="742" type="curve"/>
      <point x="161" y="742" type="line" smooth="yes"/>
      <point x="158" y="742"/>
      <point x="157" y="741"/>
      <point x="156" y="736" type="curve"/>
      <point x="85" y="156" type="line" smooth="yes"/>
      <point x="84" y="151"/>
      <point x="87" y="148"/>
      <point x="93" y="148" type="curve"/>
      <point x="107" y="148" type="line" smooth="yes"/>
      <point x="114" y="148"/>
      <point x="116" y="149"/>
    </contour>
  </outline>
</glyph>
<glyph name="ampersand" format="2">
  <advance width="740"/>
  <unicode hex="0026"/>
  <outline>
    <contour>
      <point x="381" y="753" type="curve"/>
      <point x="381" y="753" type="line"/>
      <point x="270" y="753"/>
      <point x="175" y="674"/>
      <point x="161" y="570" type="curve"/>
      <point x="153" y="515"/>
      <point x="170" y="469"/>
      <point x="209" y="422" type="curve"/>
      <point x="220" y="407"/>
      <point x="217" y="404"/>
      <point x="201" y="396" type="curve"/>
      <point x="87" y="331"/>
      <point x="40" y="267"/>
      <point x="29" y="189" type="curve"/>
      <point x="13" y="73"/>
      <point x="84" y="-5"/>
      <point x="212" y="-5" type="curve"/>
      <point x="292" y="-5"/>
      <point x="371" y="27"/>
      <point x="441" y="84" type="curve"/>
      <point x="446" y="90"/>
      <point x="451" y="92"/>
      <point x="456" y="88" type="curve"/>
      <point x="499" y="46"/>
      <point x="600" y="0"/>
      <point x="669" y="0" type="curve"/>
      <point x="681" y="0"/>
      <point x="683" y="2"/>
      <point x="685" y="13" type="curve"/>
      <point x="687" y="28" type="line" smooth="yes"/>
      <point x="688" y="35"/>
      <point x="684" y="39"/>
      <point x="674" y="39" type="curve"/>
      <point x="608" y="39"/>
      <point x="527" y="73"/>
      <point x="492" y="112" type="curve"/>
      <point x="487" y="119"/>
      <point x="489" y="123"/>
      <point x="496" y="127" type="curve"/>
      <point x="573" y="197"/>
      <point x="666" y="306"/>
      <point x="694" y="368" type="curve"/>
      <point x="695" y="373"/>
      <point x="692" y="378"/>
      <point x="688" y="380" type="curve"/>
      <point x="672" y="387" type="line" smooth="yes"/>
      <point x="667" y="389"/>
      <point x="662" y="389"/>
      <point x="659" y="384" type="curve"/>
      <point x="636" y="333"/>
      <point x="537" y="214"/>
      <point x="472" y="163" type="curve"/>
      <point x="462" y="154"/>
      <point x="462" y="152"/>
      <point x="457" y="159" type="curve"/>
      <point x="301" y="383" type="line" smooth="yes"/>
      <point x="295" y="392"/>
      <point x="297" y="396"/>
      <point x="309" y="399" type="curve"/>
      <point x="458" y="461"/>
      <point x="517" y="531"/>
      <point x="528" y="606" type="curve"/>
      <point x="541" y="699"/>
      <point x="474" y="753"/>
    </contour>
    <contour>
      <point x="379" y="714" type="curve"/>
      <point x="379" y="714" type="line"/>
      <point x="443" y="714"/>
      <point x="493" y="682"/>
      <point x="483" y="612" type="curve"/>
      <point x="473" y="543"/>
      <point x="415" y="489"/>
      <point x="275" y="428" type="curve"/>
      <point x="268" y="424"/>
      <point x="261" y="424"/>
      <point x="259" y="428" type="curve"/>
      <point x="239" y="453" type="line" smooth="yes"/>
      <point x="209" y="493"/>
      <point x="202" y="526"/>
      <point x="207" y="565" type="curve"/>
      <point x="218" y="644"/>
      <point x="283" y="714"/>
    </contour>
    <contour>
      <point x="260" y="362" type="curve"/>
      <point x="260" y="362" type="line"/>
      <point x="421" y="133" type="line" smooth="yes"/>
      <point x="426" y="125"/>
      <point x="423" y="118"/>
      <point x="412" y="111" type="curve"/>
      <point x="359" y="66"/>
      <point x="286" y="33"/>
      <point x="217" y="33" type="curve"/>
      <point x="122" y="33"/>
      <point x="61" y="92"/>
      <point x="73" y="181" type="curve"/>
      <point x="84" y="258"/>
      <point x="145" y="327"/>
      <point x="233" y="365" type="curve"/>
      <point x="246" y="372"/>
      <point x="253" y="372"/>
    </contour>
  </outline>
</glyph>
<glyph name="plus" format="2">
  <advance width="541"/>
  <unicode hex="002B"/>
  <outline>
    <contour>
      <point x="484" y="361" type="curve"/>
      <point x="488" y="385" type="line"/>
      <point x="488" y="389"/>
      <point x="485" y="392"/>
      <point x="481" y="392" type="curve"/>
      <point x="92" y="391" type="line" smooth="yes"/>
      <point x="89" y="391"/>
      <point x="88" y="390"/>
      <point x="87" y="385" type="curve"/>
      <point x="83" y="361" type="line" smooth="yes"/>
      <point x="83" y="356"/>
      <point x="85" y="353"/>
      <point x="91" y="353" type="curve"/>
      <point x="475" y="354" type="line" smooth="yes"/>
      <point x="482" y="354"/>
      <point x="484" y="355"/>
    </contour>
    <contour>
      <point x="248" y="172" type="curve"/>
      <point x="272" y="172" type="line"/>
      <point x="276" y="172"/>
      <point x="277" y="174"/>
      <point x="278" y="178" type="curve"/>
      <point x="331" y="567" type="line" smooth="yes"/>
      <point x="332" y="570"/>
      <point x="329" y="573"/>
      <point x="324" y="573" type="curve"/>
      <point x="300" y="573" type="line" smooth="yes"/>
      <point x="295" y="573"/>
      <point x="294" y="572"/>
      <point x="293" y="566" type="curve"/>
      <point x="240" y="183" type="line" smooth="yes"/>
      <point x="239" y="176"/>
      <point x="242" y="172"/>
    </contour>
  </outline>
</glyph>
<glyph name="slash" format="2">
  <advance width="328"/>
  <unicode hex="002F"/>
  <guideline x="10" y="695" angle="0"/>
  <outline>
    <contour>
      <point x="-23" y="-60" type="curve"/>
      <point x="-23" y="-60" type="line"/>
      <point x="6" y="-60" type="line" smooth="yes"/>
      <point x="11" y="-60"/>
      <point x="14" y="-59"/>
      <point x="17" y="-53" type="curve"/>
      <point x="376" y="731" type="line" smooth="yes"/>
      <point x="378" y="738"/>
      <point x="377" y="742"/>
      <point x="371" y="742" type="curve"/>
      <point x="342" y="742" type="line" smooth="yes"/>
      <point x="338" y="742"/>
      <point x="336" y="741"/>
      <point x="334" y="737" type="curve"/>
      <point x="-29" y="-54" type="line" smooth="yes"/>
      <point x="-29" y="-57"/>
      <point x="-28" y="-60"/>
    </contour>
  </outline>
</glyph>
<glyph name="two" format="2">
  <advance width="571"/>
  <unicode hex="0032"/>
  <guideline x="505" y="293" angle="90"/>
  <outline>
    <contour>
      <point x="307" y="305" type="curve"/>
      <point x="42" y="66" type="line"/>
      <point x="30" y="55"/>
      <point x="26" y="49"/>
      <point x="24" y="33" type="curve"/>
      <point x="22" y="13" type="line" smooth="yes"/>
      <point x="21" y="3"/>
      <point x="24" y="0"/>
      <point x="33" y="0" type="curve"/>
      <point x="461" y="0" type="line" smooth="yes"/>
      <point x="467" y="0"/>
      <point x="468" y="3"/>
      <point x="469" y="8" type="curve"/>
      <point x="472" y="33" type="line" smooth="yes"/>
      <point x="473" y="39"/>
      <point x="471" y="42"/>
      <point x="464" y="42" type="curve"/>
      <point x="87" y="42" type="line" smooth="yes"/>
      <point x="79" y="42"/>
      <point x="77" y="48"/>
      <point x="84" y="53" type="curve"/>
      <point x="327" y="269" type="line" smooth="yes"/>
      <point x="450" y="380"/>
      <point x="540" y="464"/>
      <point x="540" y="587" type="curve"/>
      <point x="540" y="704"/>
      <point x="449" y="752"/>
      <point x="353" y="752" type="curve"/>
      <point x="275" y="752"/>
      <point x="179" y="720"/>
      <point x="113" y="645" type="curve"/>
      <point x="108" y="639"/>
      <point x="107" y="636"/>
      <point x="110" y="633" type="curve"/>
      <point x="133" y="611" type="line" smooth="yes"/>
      <point x="137" y="608"/>
      <point x="140" y="608"/>
      <point x="144" y="613" type="curve"/>
      <point x="200" y="682"/>
      <point x="284" y="710"/>
      <point x="345" y="710" type="curve"/>
      <point x="419" y="710"/>
      <point x="495" y="669"/>
      <point x="495" y="584" type="curve"/>
      <point x="495" y="483"/>
      <point x="405" y="392"/>
    </contour>
  </outline>
</glyph>
<glyph name="three" format="2">
  <advance width="624"/>
  <unicode hex="0033"/>
  <outline>
    <contour>
      <point x="139" y="646" type="curve"/>
      <point x="139" y="646" type="line"/>
      <point x="149" y="632" type="line" smooth="yes"/>
      <point x="154" y="625"/>
      <point x="158" y="624"/>
      <point x="165" y="629" type="curve"/>
      <point x="212" y="666"/>
      <point x="269" y="710"/>
      <point x="365" y="710" type="curve"/>
      <point x="464" y="710"/>
      <point x="527" y="658"/>
      <point x="527" y="587" type="curve"/>
      <point x="527" y="487"/>
      <point x="414" y="410"/>
      <point x="288" y="410" type="curve"/>
      <point x="215" y="410" type="line" smooth="yes"/>
      <point x="210" y="410"/>
      <point x="207" y="408"/>
      <point x="207" y="404" type="curve"/>
      <point x="203" y="378" type="line" smooth="yes"/>
      <point x="202" y="373"/>
      <point x="206" y="370"/>
      <point x="212" y="370" type="curve"/>
      <point x="302" y="370" type="line" smooth="yes"/>
      <point x="402" y="370"/>
      <point x="499" y="321"/>
      <point x="499" y="221" type="curve"/>
      <point x="499" y="104"/>
      <point x="391" y="32"/>
      <point x="254" y="32" type="curve"/>
      <point x="176" y="32"/>
      <point x="103" y="56"/>
      <point x="61" y="117" type="curve"/>
      <point x="59" y="120"/>
      <point x="56" y="119"/>
      <point x="54" y="117" type="curve"/>
      <point x="28" y="96" type="line" smooth="yes"/>
      <point x="25" y="93"/>
      <point x="25" y="91"/>
      <point x="29" y="87" type="curve"/>
      <point x="77" y="35"/>
      <point x="123" y="-10"/>
      <point x="247" y="-10" type="curve"/>
      <point x="439" y="-10"/>
      <point x="544" y="102"/>
      <point x="544" y="226" type="curve"/>
      <point x="544" y="313"/>
      <point x="484" y="370"/>
      <point x="412" y="388" type="curve"/>
      <point x="403" y="390"/>
      <point x="404" y="394"/>
      <point x="410" y="396" type="curve"/>
      <point x="508" y="429"/>
      <point x="573" y="501"/>
      <point x="573" y="591" type="curve"/>
      <point x="573" y="683"/>
      <point x="495" y="752"/>
      <point x="364" y="752" type="curve"/>
      <point x="283" y="752"/>
      <point x="216" y="726"/>
      <point x="138" y="659" type="curve"/>
      <point x="134" y="655"/>
      <point x="136" y="650"/>
    </contour>
  </outline>
</glyph>
<glyph name="four" format="2">
  <advance width="623"/>
  <unicode hex="0034"/>
  <outline>
    <contour>
      <point x="466" y="738" type="curve"/>
      <point x="466" y="738" type="line"/>
      <point x="62" y="278" type="line" smooth="yes"/>
      <point x="54" y="268"/>
      <point x="52" y="265"/>
      <point x="51" y="256" type="curve"/>
      <point x="46" y="225" type="line" smooth="yes"/>
      <point x="45" y="216"/>
      <point x="47" y="214"/>
      <point x="54" y="214" type="curve"/>
      <point x="395" y="214" type="line" smooth="yes"/>
      <point x="400" y="214"/>
      <point x="402" y="211"/>
      <point x="401" y="207" type="curve"/>
      <point x="373" y="10" type="line" smooth="yes"/>
      <point x="372" y="3"/>
      <point x="374" y="0"/>
      <point x="379" y="0" type="curve"/>
      <point x="409" y="0" type="line" smooth="yes"/>
      <point x="416" y="0"/>
      <point x="418" y="2"/>
      <point x="419" y="8" type="curve"/>
      <point x="446" y="206" type="line" smooth="yes"/>
      <point x="447" y="212"/>
      <point x="450" y="214"/>
      <point x="455" y="214" type="curve"/>
      <point x="558" y="214" type="line" smooth="yes"/>
      <point x="565" y="214"/>
      <point x="567" y="217"/>
      <point x="568" y="223" type="curve"/>
      <point x="572" y="248" type="line" smooth="yes"/>
      <point x="572" y="253"/>
      <point x="568" y="256"/>
      <point x="562" y="256" type="curve"/>
      <point x="460" y="256" type="line" smooth="yes"/>
      <point x="455" y="256"/>
      <point x="454" y="258"/>
      <point x="455" y="263" type="curve"/>
      <point x="521" y="732" type="line" smooth="yes"/>
      <point x="522" y="739"/>
      <point x="519" y="742"/>
      <point x="513" y="742" type="curve"/>
      <point x="479" y="742" type="line" smooth="yes"/>
      <point x="472" y="742"/>
      <point x="469" y="741"/>
    </contour>
    <contour>
      <point x="397" y="256" type="curve"/>
      <point x="107" y="256" type="line"/>
      <point x="101" y="256"/>
      <point x="99" y="259"/>
      <point x="107" y="268" type="curve"/>
      <point x="447" y="653" type="line" smooth="yes"/>
      <point x="457" y="665"/>
      <point x="461" y="665"/>
      <point x="460" y="658" type="curve"/>
      <point x="405" y="264" type="line" smooth="yes"/>
      <point x="404" y="258"/>
      <point x="402" y="256"/>
    </contour>
  </outline>
</glyph>
<glyph name="eight" format="2">
  <advance width="659"/>
  <unicode hex="0038"/>
  <outline>
    <contour>
      <point x="400" y="752" type="curve"/>
      <point x="400" y="752" type="line"/>
      <point x="252" y="752"/>
      <point x="131" y="652"/>
      <point x="131" y="519" type="curve"/>
      <point x="131" y="449"/>
      <point x="161" y="425"/>
      <point x="206" y="395" type="curve"/>
      <point x="215" y="389"/>
      <point x="212" y="385"/>
      <point x="205" y="380" type="curve"/>
      <point x="137" y="333"/>
      <point x="60" y="275"/>
      <point x="60" y="166" type="curve"/>
      <point x="60" y="51"/>
      <point x="149" y="-10"/>
      <point x="291" y="-10" type="curve"/>
      <point x="455" y="-10"/>
      <point x="581" y="65"/>
      <point x="581" y="205" type="curve"/>
      <point x="581" y="305"/>
      <point x="515" y="342"/>
      <point x="472" y="361" type="curve"/>
      <point x="463" y="365"/>
      <point x="464" y="369"/>
      <point x="471" y="375" type="curve"/>
      <point x="496" y="396"/>
      <point x="599" y="462"/>
      <point x="599" y="578" type="curve"/>
      <point x="599" y="689"/>
      <point x="520" y="752"/>
    </contour>
    <contour>
      <point x="395" y="710" type="curve"/>
      <point x="395" y="710" type="line"/>
      <point x="494" y="710"/>
      <point x="554" y="660"/>
      <point x="554" y="581" type="curve"/>
      <point x="554" y="481"/>
      <point x="441" y="376"/>
      <point x="389" y="389" type="curve"/>
      <point x="282" y="415" type="line" smooth="yes"/>
      <point x="213" y="432"/>
      <point x="176" y="464"/>
      <point x="176" y="525" type="curve"/>
      <point x="176" y="624"/>
      <point x="270" y="710"/>
    </contour>
    <contour>
      <point x="296" y="32" type="curve"/>
      <point x="296" y="32" type="line"/>
      <point x="177" y="32"/>
      <point x="106" y="84"/>
      <point x="106" y="162" type="curve"/>
      <point x="106" y="285"/>
      <point x="249" y="375"/>
      <point x="279" y="367" type="curve"/>
      <point x="431" y="328" type="line" smooth="yes"/>
      <point x="500" y="310"/>
      <point x="536" y="267"/>
      <point x="536" y="205" type="curve"/>
      <point x="536" y="103"/>
      <point x="438" y="32"/>
    </contour>
  </outline>
</glyph>
<glyph name="nine" format="2">
  <advance width="641"/>
  <unicode hex="0039"/>
  <outline>
    <contour>
      <point x="242" y="-10" type="curve"/>
      <point x="242" y="-10" type="line"/>
      <point x="469" y="-10"/>
      <point x="586" y="229"/>
      <point x="586" y="479" type="curve"/>
      <point x="586" y="655"/>
      <point x="507" y="752"/>
      <point x="370" y="752" type="curve"/>
      <point x="224" y="752"/>
      <point x="99" y="640"/>
      <point x="99" y="489" type="curve"/>
      <point x="99" y="383"/>
      <point x="169" y="306"/>
      <point x="306" y="306" type="curve"/>
      <point x="393" y="306"/>
      <point x="458" y="336"/>
      <point x="517" y="364" type="curve"/>
      <point x="526" y="368"/>
      <point x="531" y="367"/>
      <point x="528" y="347" type="curve"/>
      <point x="503" y="170"/>
      <point x="412" y="32"/>
      <point x="244" y="32" type="curve"/>
      <point x="178" y="32"/>
      <point x="140" y="50"/>
      <point x="112" y="86" type="curve"/>
      <point x="106" y="94"/>
      <point x="102" y="94"/>
      <point x="98" y="91" type="curve"/>
      <point x="74" y="76" type="line" smooth="yes"/>
      <point x="71" y="74"/>
      <point x="71" y="71"/>
      <point x="75" y="66" type="curve"/>
      <point x="105" y="24"/>
      <point x="157" y="-10"/>
    </contour>
    <contour>
      <point x="303" y="348" type="curve"/>
      <point x="303" y="348" type="line"/>
      <point x="201" y="348"/>
      <point x="145" y="414"/>
      <point x="145" y="496" type="curve"/>
      <point x="145" y="613"/>
      <point x="247" y="710"/>
      <point x="366" y="710" type="curve"/>
      <point x="497" y="710"/>
      <point x="546" y="590"/>
      <point x="546" y="496" type="curve"/>
      <point x="546" y="450"/>
      <point x="541" y="427"/>
      <point x="510" y="409" type="curve"/>
      <point x="457" y="374"/>
      <point x="369" y="348"/>
    </contour>
  </outline>
</glyph>
<glyph name="colon" format="2">
  <advance width="182"/>
  <unicode hex="003A"/>
  <outline>
    <contour>
      <point x="145" y="431" type="curve"/>
      <point x="154" y="491" type="line"/>
      <point x="155" y="497"/>
      <point x="152" y="500"/>
      <point x="147" y="500" type="curve"/>
      <point x="99" y="500" type="line" smooth="yes"/>
      <point x="95" y="500"/>
      <point x="93" y="499"/>
      <point x="92" y="492" type="curve"/>
      <point x="83" y="432" type="line" smooth="yes"/>
      <point x="82" y="425"/>
      <point x="85" y="421"/>
      <point x="93" y="421" type="curve"/>
      <point x="132" y="421" type="line" smooth="yes"/>
      <point x="142" y="421"/>
      <point x="144" y="423"/>
    </contour>
    <contour>
      <point x="87" y="13" type="curve"/>
      <point x="95" y="73" type="line"/>
      <point x="96" y="79"/>
      <point x="93" y="82"/>
      <point x="88" y="82" type="curve"/>
      <point x="40" y="82" type="line" smooth="yes"/>
      <point x="36" y="82"/>
      <point x="34" y="81"/>
      <point x="33" y="74" type="curve"/>
      <point x="25" y="14" type="line" smooth="yes"/>
      <point x="24" y="7"/>
      <point x="26" y="3"/>
      <point x="34" y="3" type="curve"/>
      <point x="73" y="3" type="line" smooth="yes"/>
      <point x="83" y="3"/>
      <point x="85" y="5"/>
    </contour>
  </outline>
</glyph>
<glyph name="H" format="2">
  <advance width="725"/>
  <unicode hex="0048"/>
  <anchor x="430" y="742" name="top"/>
  <anchor x="326" y="0" name="bottom"/>
  <outline>
    <contour>
      <point x="181" y="366" type="curve"/>
      <point x="573" y="366" type="line"/>
      <point x="578" y="366"/>
      <point x="579" y="365"/>
      <point x="578" y="360" type="curve"/>
      <point x="529" y="10" type="line" smooth="yes"/>
      <point x="528" y="3"/>
      <point x="532" y="0"/>
      <point x="539" y="0" type="curve"/>
      <point x="566" y="0" type="line" smooth="yes"/>
      <point x="572" y="0"/>
      <point x="574" y="2"/>
      <point x="575" y="9" type="curve"/>
      <point x="676" y="731" type="line" smooth="yes"/>
      <point x="678" y="739"/>
      <point x="675" y="742"/>
      <point x="668" y="742" type="curve"/>
      <point x="639" y="742" type="line" smooth="yes"/>
      <point x="633" y="742"/>
      <point x="632" y="740"/>
      <point x="631" y="734" type="curve"/>
      <point x="586" y="415" type="line" smooth="yes"/>
      <point x="585" y="409"/>
      <point x="582" y="406"/>
      <point x="576" y="406" type="curve"/>
      <point x="188" y="406" type="line" smooth="yes"/>
      <point x="181" y="406"/>
      <point x="180" y="406"/>
      <point x="181" y="414" type="curve"/>
      <point x="225" y="731" type="line" smooth="yes"/>
      <point x="227" y="739"/>
      <point x="224" y="742"/>
      <point x="217" y="742" type="curve"/>
      <point x="189" y="742" type="line" smooth="yes"/>
      <point x="182" y="742"/>
      <point x="181" y="741"/>
      <point x="180" y="733" type="curve"/>
      <point x="78" y="11" type="line" smooth="yes"/>
      <point x="77" y="4"/>
      <point x="80" y="0"/>
      <point x="87" y="0" type="curve"/>
      <point x="114" y="0" type="line" smooth="yes"/>
      <point x="121" y="0"/>
      <point x="123" y="2"/>
      <point x="124" y="8" type="curve"/>
      <point x="173" y="359" type="line" smooth="yes"/>
      <point x="174" y="362"/>
      <point x="177" y="366"/>
    </contour>
  </outline>
</glyph>
<glyph name="J" format="2">
  <advance width="399"/>
  <unicode hex="004A"/>
  <anchor x="333" y="742" name="top"/>
  <outline>
    <contour>
      <point x="272" y="143" type="curve"/>
      <point x="272" y="143" type="line"/>
      <point x="354" y="731" type="line" smooth="yes"/>
      <point x="355" y="738"/>
      <point x="353" y="742"/>
      <point x="347" y="742" type="curve"/>
      <point x="317" y="742" type="line" smooth="yes"/>
      <point x="311" y="742"/>
      <point x="310" y="740"/>
      <point x="309" y="734" type="curve"/>
      <point x="228" y="155" type="line" smooth="yes"/>
      <point x="215" y="67"/>
      <point x="190" y="34"/>
      <point x="124" y="34" type="curve"/>
      <point x="83" y="34"/>
      <point x="54" y="47"/>
      <point x="40" y="54" type="curve"/>
      <point x="30" y="59"/>
      <point x="28" y="58"/>
      <point x="27" y="55" type="curve"/>
      <point x="12" y="25" type="line" smooth="yes"/>
      <point x="10" y="21"/>
      <point x="13" y="18"/>
      <point x="18" y="15" type="curve"/>
      <point x="25" y="11"/>
      <point x="64" y="-10"/>
      <point x="121" y="-10" type="curve"/>
      <point x="217" y="-10"/>
      <point x="259" y="48"/>
    </contour>
  </outline>
</glyph>
<glyph name="M" format="2">
  <advance width="879"/>
  <unicode hex="004D"/>
  <guideline x="43" y="566" angle="0"/>
  <outline>
    <contour>
      <point x="84" y="0" type="curve"/>
      <point x="84" y="0" type="line"/>
      <point x="112" y="0" type="line" smooth="yes"/>
      <point x="119" y="0"/>
      <point x="121" y="2"/>
      <point x="122" y="8" type="curve"/>
      <point x="208" y="620" type="line" smooth="yes"/>
      <point x="209" y="624"/>
      <point x="211" y="624"/>
      <point x="212" y="620" type="curve"/>
      <point x="370" y="11" type="line" smooth="yes"/>
      <point x="372" y="2"/>
      <point x="374" y="0"/>
      <point x="382" y="0" type="curve"/>
      <point x="415" y="0" type="line" smooth="yes"/>
      <point x="424" y="0"/>
      <point x="427" y="2"/>
      <point x="431" y="10" type="curve"/>
      <point x="767" y="624" type="line" smooth="yes"/>
      <point x="768" y="626"/>
      <point x="770" y="627"/>
      <point x="769" y="622" type="curve"/>
      <point x="683" y="10" type="line" smooth="yes"/>
      <point x="682" y="3"/>
      <point x="686" y="0"/>
      <point x="693" y="0" type="curve"/>
      <point x="720" y="0" type="line" smooth="yes"/>
      <point x="726" y="0"/>
      <point x="728" y="2"/>
      <point x="729" y="9" type="curve"/>
      <point x="830" y="731" type="line" smooth="yes"/>
      <point x="831" y="739"/>
      <point x="829" y="742"/>
      <point x="822" y="742" type="curve"/>
      <point x="793" y="742" type="line" smooth="yes"/>
      <point x="787" y="742"/>
      <point x="785" y="741"/>
      <point x="782" y="736" type="curve"/>
      <point x="416" y="66" type="line" smooth="yes"/>
      <point x="409" y="52"/>
      <point x="404" y="50"/>
      <point x="401" y="63" type="curve"/>
      <point x="226" y="736" type="line" smooth="yes"/>
      <point x="225" y="740"/>
      <point x="223" y="742"/>
      <point x="218" y="742" type="curve"/>
      <point x="189" y="742" type="line" smooth="yes"/>
      <point x="182" y="742"/>
      <point x="181" y="741"/>
      <point x="180" y="733" type="curve"/>
      <point x="78" y="11" type="line" smooth="yes"/>
      <point x="77" y="2"/>
      <point x="77" y="0"/>
    </contour>
  </outline>
</glyph>
<glyph name="P" format="2">
  <advance width="674"/>
  <unicode hex="0050"/>
  <outline>
    <contour>
      <point x="178" y="327" type="curve"/>
      <point x="361" y="327" type="line"/>
      <point x="533" y="327"/>
      <point x="652" y="408"/>
      <point x="652" y="570" type="curve"/>
      <point x="652" y="693"/>
      <point x="553" y="742"/>
      <point x="411" y="742" type="curve"/>
      <point x="189" y="742" type="line" smooth="yes"/>
      <point x="182" y="742"/>
      <point x="181" y="739"/>
      <point x="180" y="731" type="curve"/>
      <point x="78" y="9" type="line" smooth="yes"/>
      <point x="77" y="4"/>
      <point x="81" y="0"/>
      <point x="86" y="0" type="curve"/>
      <point x="116" y="0" type="line" smooth="yes"/>
      <point x="121" y="0"/>
      <point x="123" y="2"/>
      <point x="124" y="8" type="curve"/>
      <point x="167" y="317" type="line" smooth="yes"/>
      <point x="168" y="323"/>
      <point x="172" y="327"/>
    </contour>
    <contour>
      <point x="604" y="572" type="curve"/>
      <point x="604" y="572" type="line"/>
      <point x="604" y="436"/>
      <point x="511" y="367"/>
      <point x="364" y="367" type="curve"/>
      <point x="183" y="367" type="line" smooth="yes"/>
      <point x="176" y="367"/>
      <point x="175" y="370"/>
      <point x="176" y="379" type="curve"/>
      <point x="220" y="693" type="line" smooth="yes"/>
      <point x="221" y="699"/>
      <point x="225" y="702"/>
      <point x="231" y="702" type="curve"/>
      <point x="406" y="702" type="line" smooth="yes"/>
      <point x="529" y="702"/>
      <point x="604" y="670"/>
    </contour>
  </outline>
</glyph>
<glyph name="underscore" format="2">
  <advance width="501"/>
  <unicode hex="005F"/>
  <outline>
    <contour>
      <point x="381" y="-94" type="curve"/>
      <point x="384" y="-68" type="line"/>
      <point x="385" y="-64"/>
      <point x="381" y="-61"/>
      <point x="377" y="-61" type="curve"/>
      <point x="28" y="-62" type="line" smooth="yes"/>
      <point x="25" y="-62"/>
      <point x="24" y="-63"/>
      <point x="23" y="-68" type="curve"/>
      <point x="20" y="-94" type="line" smooth="yes"/>
      <point x="19" y="-99"/>
      <point x="21" y="-102"/>
      <point x="27" y="-102" type="curve"/>
      <point x="371" y="-101" type="line" smooth="yes"/>
      <point x="378" y="-101"/>
      <point x="380" y="-100"/>
    </contour>
  </outline>
</glyph>
<glyph name="g" format="2">
  <advance width="582"/>
  <unicode hex="0067"/>
  <guideline x="279" y="374" angle="90"/>
  <anchor x="320" y="530" name="top"/>
  <outline>
    <contour>
      <point x="212" y="-175" type="curve"/>
      <point x="212" y="-175" type="line"/>
      <point x="348" y="-175"/>
      <point x="476" y="-129"/>
      <point x="476" y="-3" type="curve"/>
      <point x="476" y="71"/>
      <point x="432" y="111"/>
      <point x="338" y="116" type="curve"/>
      <point x="219" y="123" type="line" smooth="yes"/>
      <point x="146" y="127"/>
      <point x="116" y="136"/>
      <point x="116" y="157" type="curve"/>
      <point x="116" y="206"/>
      <point x="245" y="209"/>
      <point x="273" y="209" type="curve"/>
      <point x="392" y="209"/>
      <point x="497" y="267"/>
      <point x="497" y="392" type="curve"/>
      <point x="497" y="419"/>
      <point x="490" y="435"/>
      <point x="485" y="449" type="curve"/>
      <point x="482" y="457"/>
      <point x="491" y="463"/>
      <point x="511" y="473" type="curve"/>
      <point x="528" y="481"/>
      <point x="541" y="487"/>
      <point x="568" y="488" type="curve"/>
      <point x="581" y="489"/>
      <point x="583" y="493"/>
      <point x="585" y="503" type="curve"/>
      <point x="587" y="516" type="line" smooth="yes"/>
      <point x="588" y="525"/>
      <point x="584" y="530"/>
      <point x="568" y="530" type="curve"/>
      <point x="533" y="530"/>
      <point x="500" y="508"/>
      <point x="477" y="493" type="curve"/>
      <point x="470" y="488"/>
      <point x="464" y="487"/>
      <point x="459" y="492" type="curve"/>
      <point x="434" y="516"/>
      <point x="393" y="538"/>
      <point x="313" y="538" type="curve"/>
      <point x="192" y="538"/>
      <point x="89" y="468"/>
      <point x="89" y="343" type="curve"/>
      <point x="89" y="296"/>
      <point x="109" y="262"/>
      <point x="153" y="236" type="curve"/>
      <point x="159" y="233"/>
      <point x="156" y="227"/>
      <point x="148" y="224" type="curve"/>
      <point x="113" y="211"/>
      <point x="73" y="188"/>
      <point x="73" y="152" type="curve"/>
      <point x="73" y="134"/>
      <point x="82" y="121"/>
      <point x="102" y="107" type="curve"/>
      <point x="108" y="103"/>
      <point x="105" y="100"/>
      <point x="97" y="96" type="curve"/>
      <point x="31" y="65"/>
      <point x="-8" y="15"/>
      <point x="-8" y="-43" type="curve"/>
      <point x="-8" y="-122"/>
      <point x="65" y="-175"/>
    </contour>
    <contour>
      <point x="211" y="-137" type="curve"/>
      <point x="211" y="-137" type="line"/>
      <point x="106" y="-137"/>
      <point x="35" y="-110"/>
      <point x="35" y="-37" type="curve"/>
      <point x="35" y="26"/>
      <point x="89" y="68"/>
      <point x="162" y="86" type="curve"/>
      <point x="333" y="75" type="line" smooth="yes"/>
      <point x="407" y="71"/>
      <point x="433" y="47"/>
      <point x="433" y="-3" type="curve"/>
      <point x="433" y="-113"/>
      <point x="310" y="-137"/>
    </contour>
    <contour>
      <point x="275" y="247" type="curve"/>
      <point x="275" y="247" type="line"/>
      <point x="181" y="247"/>
      <point x="129" y="281"/>
      <point x="129" y="347" type="curve"/>
      <point x="129" y="452"/>
      <point x="219" y="500"/>
      <point x="315" y="500" type="curve"/>
      <point x="409" y="500"/>
      <point x="458" y="464"/>
      <point x="458" y="397" type="curve"/>
      <point x="458" y="286"/>
      <point x="370" y="247"/>
    </contour>
  </outline>
</glyph>
<glyph name="braceleft" format="2">
  <advance width="267"/>
  <unicode hex="007B"/>
  <outline>
    <contour>
      <point x="166" y="-165" type="curve"/>
      <point x="166" y="-165" type="line"/>
      <point x="185" y="-165" type="line" smooth="yes"/>
      <point x="191" y="-165"/>
      <point x="192" y="-164"/>
      <point x="193" y="-158" type="curve"/>
      <point x="196" y="-137" type="line" smooth="yes"/>
      <point x="196" y="-132"/>
      <point x="193" y="-128"/>
      <point x="188" y="-128" type="curve"/>
      <point x="169" y="-128" type="line" smooth="yes"/>
      <point x="119" y="-128"/>
      <point x="107" y="-112"/>
      <point x="112" y="-74" type="curve"/>
      <point x="145" y="161" type="line" smooth="yes"/>
      <point x="157" y="244"/>
      <point x="118" y="281"/>
      <point x="67" y="285" type="curve"/>
      <point x="59" y="286"/>
      <point x="63" y="291"/>
      <point x="72" y="292" type="curve"/>
      <point x="123" y="297"/>
      <point x="170" y="337"/>
      <point x="182" y="418" type="curve"/>
      <point x="214" y="651" type="line" smooth="yes"/>
      <point x="219" y="688"/>
      <point x="241" y="705"/>
      <point x="287" y="705" type="curve"/>
      <point x="308" y="705" type="line" smooth="yes"/>
      <point x="312" y="705"/>
      <point x="314" y="706"/>
      <point x="315" y="710" type="curve"/>
      <point x="318" y="736" type="line" smooth="yes"/>
      <point x="319" y="740"/>
      <point x="316" y="742"/>
      <point x="311" y="742" type="curve"/>
      <point x="290" y="742" type="line" smooth="yes"/>
      <point x="216" y="742"/>
      <point x="178" y="705"/>
      <point x="171" y="653" type="curve"/>
      <point x="138" y="420" type="line" smooth="yes"/>
      <point x="129" y="360"/>
      <point x="84" y="309"/>
      <point x="8" y="308" type="curve"/>
      <point x="7" y="308"/>
      <point x="6" y="307"/>
      <point x="5" y="303" type="curve"/>
      <point x="2" y="276" type="line" smooth="yes"/>
      <point x="1" y="272"/>
      <point x="4" y="269"/>
      <point x="7" y="269" type="curve"/>
      <point x="80" y="269"/>
      <point x="108" y="211"/>
      <point x="102" y="163" type="curve"/>
      <point x="69" y="-72" type="line" smooth="yes"/>
      <point x="61" y="-123"/>
      <point x="87" y="-165"/>
    </contour>
  </outline>
</glyph>
<glyph name="copyright" format="2">
  <advance width="830"/>
  <unicode hex="00A9"/>
  <outline>
    <contour>
      <point x="378" y="-10" type="curve"/>
      <point x="378" y="-10" type="line"/>
      <point x="587" y="-10"/>
      <point x="781" y="158"/>
      <point x="811" y="369" type="curve"/>
      <point x="840" y="580"/>
      <point x="692" y="752"/>
      <point x="481" y="752" type="curve"/>
      <point x="271" y="752"/>
      <point x="79" y="582"/>
      <point x="49" y="373" type="curve"/>
      <point x="19" y="160"/>
      <point x="166" y="-10"/>
    </contour>
    <contour>
      <point x="381" y="34" type="curve"/>
      <point x="381" y="34" type="line"/>
      <point x="201" y="34"/>
      <point x="65" y="165"/>
      <point x="94" y="369" type="curve"/>
      <point x="122" y="572"/>
      <point x="297" y="709"/>
      <point x="479" y="709" type="curve"/>
      <point x="655" y="709"/>
      <point x="794" y="574"/>
      <point x="766" y="373" type="curve"/>
      <point x="737" y="167"/>
      <point x="559" y="34"/>
    </contour>
    <contour>
      <point x="461" y="590" type="curve"/>
      <point x="461" y="590" type="line"/>
      <point x="352" y="590"/>
      <point x="262" y="501"/>
      <point x="244" y="375" type="curve"/>
      <point x="226" y="246"/>
      <point x="291" y="159"/>
      <point x="404" y="159" type="curve"/>
      <point x="470" y="159"/>
      <point x="531" y="196"/>
      <point x="578" y="256" type="curve"/>
      <point x="578" y="260"/>
      <point x="578" y="263"/>
      <point x="575" y="265" type="curve"/>
      <point x="557" y="277" type="line" smooth="yes"/>
      <point x="554" y="279"/>
      <point x="550" y="282"/>
      <point x="547" y="279" type="curve"/>
      <point x="514" y="231"/>
      <point x="464" y="198"/>
      <point x="409" y="198" type="curve"/>
      <point x="324" y="198"/>
      <point x="274" y="269"/>
      <point x="288" y="373" type="curve"/>
      <point x="303" y="478"/>
      <point x="375" y="551"/>
      <point x="463" y="551" type="curve"/>
      <point x="506" y="551"/>
      <point x="543" y="528"/>
      <point x="568" y="481" type="curve"/>
      <point x="570" y="476"/>
      <point x="573" y="474"/>
      <point x="576" y="475" type="curve"/>
      <point x="605" y="491" type="line" smooth="yes"/>
      <point x="605" y="492"/>
      <point x="607" y="494"/>
      <point x="605" y="497" type="curve"/>
      <point x="574" y="550"/>
      <point x="532" y="590"/>
    </contour>
  </outline>
</glyph>
<glyph name="ordfeminine" format="2">
  <advance width="405"/>
  <unicode hex="00AA"/>
  <outline>
    <contour>
      <point x="256" y="749" type="curve"/>
      <point x="256" y="749" type="line"/>
      <point x="196" y="749"/>
      <point x="145" y="724"/>
      <point x="116" y="682" type="curve"/>
      <point x="115" y="678"/>
      <point x="116" y="675"/>
      <point x="116" y="674" type="curve"/>
      <point x="139" y="663" type="line" smooth="yes"/>
      <point x="143" y="661"/>
      <point x="145" y="661"/>
      <point x="147" y="663" type="curve"/>
      <point x="179" y="703"/>
      <point x="208" y="715"/>
      <point x="251" y="715" type="curve"/>
      <point x="310" y="715"/>
      <point x="338" y="691"/>
      <point x="331" y="639" type="curve"/>
      <point x="328" y="621" type="line" smooth="yes"/>
      <point x="327" y="615"/>
      <point x="322" y="612"/>
      <point x="315" y="611" type="curve"/>
      <point x="253" y="605" type="line" smooth="yes"/>
      <point x="146" y="595"/>
      <point x="89" y="561"/>
      <point x="80" y="498" type="curve"/>
      <point x="72" y="440"/>
      <point x="110" y="405"/>
      <point x="180" y="405" type="curve"/>
      <point x="224" y="405"/>
      <point x="258" y="420"/>
      <point x="298" y="454" type="curve"/>
      <point x="303" y="459"/>
      <point x="305" y="461"/>
      <point x="305" y="456" type="curve"/>
      <point x="306" y="418" type="line" smooth="yes"/>
      <point x="306" y="413"/>
      <point x="309" y="411"/>
      <point x="315" y="411" type="curve"/>
      <point x="340" y="411" type="line" smooth="yes"/>
      <point x="344" y="411"/>
      <point x="346" y="413"/>
      <point x="343" y="417" type="curve"/>
      <point x="339" y="442"/>
      <point x="340" y="451"/>
      <point x="343" y="471" type="curve"/>
      <point x="366" y="633" type="line" smooth="yes"/>
      <point x="376" y="704"/>
      <point x="336" y="749"/>
    </contour>
    <contour>
      <point x="118" y="495" type="curve"/>
      <point x="118" y="495" type="line"/>
      <point x="125" y="540"/>
      <point x="171" y="568"/>
      <point x="263" y="575" type="curve"/>
      <point x="313" y="579" type="line" smooth="yes"/>
      <point x="321" y="580"/>
      <point x="322" y="578"/>
      <point x="321" y="571" type="curve"/>
      <point x="314" y="522" type="line" smooth="yes"/>
      <point x="312" y="504"/>
      <point x="297" y="487"/>
      <point x="275" y="471" type="curve"/>
      <point x="249" y="448"/>
      <point x="221" y="437"/>
      <point x="189" y="437" type="curve"/>
      <point x="141" y="437"/>
      <point x="113" y="460"/>
    </contour>
  </outline>
</glyph>
<glyph name="registered" format="2">
  <advance width="545"/>
  <unicode hex="00AE"/>
  <outline>
    <contour>
      <point x="276" y="275" type="curve"/>
      <point x="276" y="275" type="line"/>
      <point x="406" y="275"/>
      <point x="527" y="380"/>
      <point x="546" y="511" type="curve"/>
      <point x="564" y="644"/>
      <point x="471" y="752"/>
      <point x="339" y="752" type="curve"/>
      <point x="207" y="752"/>
      <point x="88" y="646"/>
      <point x="69" y="515" type="curve"/>
      <point x="50" y="382"/>
      <point x="142" y="275"/>
    </contour>
    <contour>
      <point x="277" y="310" type="curve"/>
      <point x="277" y="310" type="line"/>
      <point x="158" y="310"/>
      <point x="87" y="388"/>
      <point x="105" y="511" type="curve"/>
      <point x="122" y="635"/>
      <point x="218" y="717"/>
      <point x="339" y="717" type="curve"/>
      <point x="456" y="717"/>
      <point x="527" y="637"/>
      <point x="510" y="515" type="curve"/>
      <point x="493" y="390"/>
      <point x="396" y="310"/>
    </contour>
    <contour>
      <point x="373" y="397" type="curve"/>
      <point x="373" y="397" type="line"/>
      <point x="345" y="507" type="line" smooth="yes"/>
      <point x="344" y="508"/>
      <point x="347" y="510"/>
      <point x="349" y="510" type="curve"/>
      <point x="371" y="517"/>
      <point x="399" y="531"/>
      <point x="405" y="570" type="curve"/>
      <point x="410" y="609"/>
      <point x="385" y="630"/>
      <point x="338" y="630" type="curve"/>
      <point x="238" y="630" type="line" smooth="yes"/>
      <point x="236" y="630"/>
      <point x="237" y="630"/>
      <point x="237" y="627" type="curve"/>
      <point x="205" y="397" type="line" smooth="yes"/>
      <point x="204" y="395"/>
      <point x="205" y="393"/>
      <point x="208" y="393" type="curve"/>
      <point x="231" y="393" type="line" smooth="yes"/>
      <point x="234" y="393"/>
      <point x="233" y="393"/>
      <point x="233" y="396" type="curve"/>
      <point x="248" y="502" type="line" smooth="yes"/>
      <point x="249" y="505"/>
      <point x="251" y="507"/>
      <point x="254" y="507" type="curve"/>
      <point x="310" y="507" type="line" smooth="yes"/>
      <point x="319" y="507"/>
      <point x="315" y="507"/>
      <point x="316" y="505" type="curve"/>
      <point x="343" y="397" type="line" smooth="yes"/>
      <point x="342" y="395"/>
      <point x="344" y="393"/>
      <point x="346" y="393" type="curve"/>
      <point x="370" y="393" type="line" smooth="yes"/>
      <point x="373" y="393"/>
      <point x="373" y="394"/>
    </contour>
    <contour>
      <point x="318" y="535" type="curve"/>
      <point x="318" y="535" type="line"/>
      <point x="255" y="535" type="line" smooth="yes"/>
      <point x="253" y="535"/>
      <point x="253" y="535"/>
      <point x="253" y="537" type="curve"/>
      <point x="262" y="598" type="line" smooth="yes"/>
      <point x="263" y="605"/>
      <point x="264" y="602"/>
      <point x="267" y="602" type="curve"/>
      <point x="326" y="602" type="line" smooth="yes"/>
      <point x="370" y="602"/>
      <point x="376" y="587"/>
      <point x="374" y="570" type="curve"/>
      <point x="370" y="543"/>
      <point x="345" y="535"/>
    </contour>
  </outline>
</glyph>
<glyph name="questiondown" format="2">
	<advance width="506"/>
	<unicode hex="00BF"/>
	<outline>
		<contour>
			<point x="267" y="520" type="curve"/>
			<point x="258" y="460" type="line"/>
			<point x="258" y="454"/>
			<point x="260" y="451"/>
			<point x="265" y="451" type="curve"/>
			<point x="313" y="451" type="line" smooth="yes"/>
			<point x="318" y="451"/>
			<point x="319" y="453"/>
			<point x="320" y="459" type="curve"/>
			<point x="329" y="519" type="line" smooth="yes"/>
			<point x="330" y="526"/>
			<point x="326" y="530"/>
			<point x="319" y="530" type="curve"/>
			<point x="280" y="530" type="line" smooth="yes"/>
			<point x="270" y="530"/>
			<point x="268" y="528"/>
		</contour>
		<contour>
			<point x="418" y="-44" type="curve"/>
			<point x="418" y="-44" type="line"/>
			<point x="390" y="-30" type="line" smooth="yes"/>
			<point x="385" y="-28"/>
			<point x="384" y="-29"/>
			<point x="381" y="-31" type="curve"/>
			<point x="352" y="-86"/>
			<point x="261" y="-133"/>
			<point x="183" y="-133" type="curve"/>
			<point x="84" y="-133"/>
			<point x="28" y="-80"/>
			<point x="39" y="5" type="curve"/>
			<point x="61" y="158"/>
			<point x="269" y="164"/>
			<point x="298" y="369" type="curve"/>
			<point x="299" y="376"/>
			<point x="295" y="380"/>
			<point x="290" y="380" type="curve"/>
			<point x="263" y="380" type="line" smooth="yes"/>
			<point x="259" y="380"/>
			<point x="257" y="377"/>
			<point x="256" y="374" type="curve"/>
			<point x="229" y="181"/>
			<point x="17" y="175"/>
			<point x="-6" y="9" type="curve"/>
			<point x="-22" y="-103"/>
			<point x="51" y="-175"/>
			<point x="181" y="-175" type="curve"/>
			<point x="275" y="-175"/>
			<point x="369" y="-128"/>
			<point x="421" y="-54" type="curve"/>
			<point x="423" y="-50"/>
			<point x="421" y="-46"/>
		</contour>
	</outline>
</glyph>
<glyph name="thorn" format="2">
  <advance width="588"/>
  <unicode hex="00FE"/>
  <outline>
    <contour>
      <point x="185" y="742" type="curve"/>
      <point x="185" y="742" type="line"/>
      <point x="169" y="742" type="line" smooth="yes"/>
      <point x="160" y="742"/>
      <point x="158" y="740"/>
      <point x="156" y="731" type="curve"/>
      <point x="32" y="-155" type="line" smooth="yes"/>
      <point x="31" y="-161"/>
      <point x="35" y="-165"/>
      <point x="40" y="-165" type="curve"/>
      <point x="63" y="-165" type="line" smooth="yes"/>
      <point x="70" y="-165"/>
      <point x="71" y="-163"/>
      <point x="72" y="-156" type="curve"/>
      <point x="98" y="32" type="line" smooth="yes"/>
      <point x="100" y="45"/>
      <point x="105" y="50"/>
      <point x="116" y="41" type="curve"/>
      <point x="140" y="17"/>
      <point x="186" y="-10"/>
      <point x="255" y="-10" type="curve"/>
      <point x="401" y="-10"/>
      <point x="509" y="104"/>
      <point x="533" y="273" type="curve"/>
      <point x="558" y="451"/>
      <point x="470" y="540"/>
      <point x="341" y="540" type="curve"/>
      <point x="238" y="540"/>
      <point x="186" y="482"/>
      <point x="168" y="466" type="curve"/>
      <point x="159" y="457"/>
      <point x="156" y="456"/>
      <point x="157" y="467" type="curve"/>
      <point x="194" y="730" type="line" smooth="yes"/>
      <point x="195" y="737"/>
      <point x="192" y="742"/>
    </contour>
    <contour>
      <point x="107" y="103" type="curve"/>
      <point x="107" y="103" type="line"/>
      <point x="145" y="363" type="line" smooth="yes"/>
      <point x="153" y="423"/>
      <point x="233" y="502"/>
      <point x="334" y="502" type="curve"/>
      <point x="433" y="502"/>
      <point x="513" y="431"/>
      <point x="491" y="273" type="curve"/>
      <point x="470" y="120"/>
      <point x="372" y="28"/>
      <point x="256" y="28" type="curve"/>
      <point x="196" y="28"/>
      <point x="150" y="56"/>
    </contour>
  </outline>
</glyph>
<glyph name="dcroat" format="2">
  <advance width="602"/>
  <unicode hex="0111"/>
  <outline>
    <contour>
      <point x="666" y="634" type="curve"/>
      <point x="669" y="655" type="line"/>
      <point x="669" y="659"/>
      <point x="667" y="662"/>
      <point x="664" y="662" type="curve"/>
      <point x="385" y="662" type="line" smooth="yes"/>
      <point x="382" y="662"/>
      <point x="381" y="661"/>
      <point x="380" y="656" type="curve"/>
      <point x="377" y="636" type="line" smooth="yes"/>
      <point x="376" y="630"/>
      <point x="378" y="627"/>
      <point x="384" y="627" type="curve"/>
      <point x="656" y="627" type="line" smooth="yes"/>
      <point x="663" y="627"/>
      <point x="665" y="628"/>
    </contour>
    <component base="d"/>
  </outline>
</glyph>
<glyph name="gcommaaccent" format="2">
	<advance width="582"/>
	<unicode hex="0123"/>
	<anchor x="360" y="550" name="top"/>
	<outline>
		<contour>
			<point x="345" y="632" type="curve"/>
			<point x="345" y="632" type="line"/>
			<point x="392" y="632" type="line" smooth="yes"/>
			<point x="396" y="632"/>
			<point x="398" y="634"/>
			<point x="399" y="641" type="curve"/>
			<point x="408" y="707" type="line" smooth="yes"/>
			<point x="409" y="712"/>
			<point x="408" y="715"/>
			<point x="402" y="715" type="curve"/>
			<point x="391" y="715" type="line" smooth="yes"/>
			<point x="386" y="715"/>
			<point x="385" y="717"/>
			<point x="390" y="725" type="curve"/>
			<point x="423" y="779" type="line" smooth="yes"/>
			<point x="426" y="783"/>
			<point x="425" y="786"/>
			<point x="421" y="786" type="curve"/>
			<point x="405" y="786" type="line" smooth="yes"/>
			<point x="401" y="786"/>
			<point x="397" y="785"/>
			<point x="393" y="779" type="curve"/>
			<point x="357" y="726" type="line" smooth="yes"/>
			<point x="354" y="722"/>
			<point x="352" y="717"/>
			<point x="351" y="713" type="curve"/>
			<point x="341" y="638" type="line" smooth="yes"/>
			<point x="340" y="633"/>
			<point x="341" y="632"/>
		</contour>
		<component base="g"/>
	</outline>
</glyph>
<glyph name="Lslash" format="2">
	<advance width="550"/>
	<unicode hex="0141"/>
	<outline>
		<contour>
			<point x="347" y="407" type="curve"/>
			<point x="350" y="431" type="line"/>
			<point x="351" y="435"/>
			<point x="348" y="438"/>
			<point x="343" y="437" type="curve"/>
			<point x="51" y="365" type="line" smooth="yes"/>
			<point x="48" y="364"/>
			<point x="47" y="362"/>
			<point x="46" y="357" type="curve"/>
			<point x="43" y="333" type="line" smooth="yes"/>
			<point x="42" y="328"/>
			<point x="45" y="326"/>
			<point x="50" y="327" type="curve"/>
			<point x="341" y="400" type="line" smooth="yes"/>
			<point x="345" y="401"/>
			<point x="346" y="403"/>
		</contour>
		<component base="L" xOffset="-37"/>
	</outline>
</glyph>
<glyph name="lslash" format="2">
  <advance width="242"/>
  <unicode hex="0142"/>
  <outline>
    <contour>
      <point x="259" y="402" type="curve"/>
      <point x="263" y="432" type="line"/>
      <point x="264" y="436"/>
      <point x="262" y="440"/>
      <point x="256" y="436" type="curve"/>
      <point x="2" y="226" type="line" smooth="yes"/>
      <point x="-2" y="223"/>
      <point x="-3" y="220"/>
      <point x="-4" y="216" type="curve"/>
      <point x="-8" y="187" type="line" smooth="yes"/>
      <point x="-9" y="182"/>
      <point x="-7" y="176"/>
      <point x="-1" y="180" type="curve"/>
      <point x="253" y="391" type="line" smooth="yes"/>
      <point x="257" y="395"/>
      <point x="259" y="398"/>
    </contour>
    <component base="l" xOffset="-7"/>
  </outline>
</glyph>
<glyph name="Eng" format="2">
  <advance width="755"/>
  <unicode hex="014A"/>
  <outline>
    <contour>
      <point x="698" y="742" type="curve"/>
      <point x="698" y="742" type="line"/>
      <point x="672" y="742" type="line" smooth="yes"/>
      <point x="666" y="742"/>
      <point x="665" y="740"/>
      <point x="664" y="734" type="curve"/>
      <point x="576" y="108" type="line" smooth="yes"/>
      <point x="575" y="102"/>
      <point x="566" y="93"/>
      <point x="560" y="103" type="curve"/>
      <point x="223" y="734" type="line" smooth="yes"/>
      <point x="220" y="740"/>
      <point x="217" y="742"/>
      <point x="210" y="742" type="curve"/>
      <point x="189" y="742" type="line" smooth="yes"/>
      <point x="182" y="742"/>
      <point x="181" y="741"/>
      <point x="180" y="733" type="curve"/>
      <point x="78" y="11" type="line" smooth="yes"/>
      <point x="77" y="4"/>
      <point x="80" y="0"/>
      <point x="87" y="0" type="curve"/>
      <point x="112" y="0" type="line" smooth="yes"/>
      <point x="119" y="0"/>
      <point x="121" y="2"/>
      <point x="122" y="8" type="curve"/>
      <point x="211" y="639" type="line" smooth="yes"/>
      <point x="212" y="647"/>
      <point x="215" y="651"/>
      <point x="221" y="641" type="curve"/>
      <point x="559" y="12" type="line"/>
      <point x="552" y="-40" type="line" smooth="yes"/>
      <point x="542" y="-111"/>
      <point x="507" y="-135"/>
      <point x="452" y="-135" type="curve"/>
      <point x="423" y="-135"/>
      <point x="400" y="-128"/>
      <point x="383" y="-123" type="curve"/>
      <point x="380" y="-120"/>
      <point x="379" y="-120"/>
      <point x="377" y="-125" type="curve"/>
      <point x="371" y="-150" type="line"/>
      <point x="370" y="-154"/>
      <point x="372" y="-157"/>
      <point x="375" y="-159" type="curve"/>
      <point x="381" y="-164"/>
      <point x="412" y="-175"/>
      <point x="454" y="-175" type="curve"/>
      <point x="547" y="-175"/>
      <point x="586" y="-125"/>
      <point x="597" y="-47" type="curve"/>
      <point x="706" y="731" type="line" smooth="yes"/>
      <point x="708" y="739"/>
      <point x="705" y="742"/>
    </contour>
  </outline>
</glyph>
<glyph name="tbar" format="2">
  <advance width="358"/>
  <unicode hex="0167"/>
  <outline>
    <contour>
      <point x="287" y="287" type="curve"/>
      <point x="290" y="308" type="line"/>
      <point x="291" y="312"/>
      <point x="288" y="315"/>
      <point x="285" y="315" type="curve"/>
      <point x="66" y="315" type="line" smooth="yes"/>
      <point x="63" y="315"/>
      <point x="62" y="314"/>
      <point x="61" y="309" type="curve"/>
      <point x="58" y="289" type="line" smooth="yes"/>
      <point x="57" y="283"/>
      <point x="59" y="280"/>
      <point x="65" y="280" type="curve"/>
      <point x="277" y="280" type="line" smooth="yes"/>
      <point x="284" y="280"/>
      <point x="286" y="281"/>
    </contour>
    <component base="t"/>
  </outline>
</glyph>
<glyph name="Aringacute" format="2">
	<advance width="637"/>
	<unicode hex="01FA"/>
	<outline>
		<contour>
			<point x="493" y="800" type="curve"/>
			<point x="493" y="800" type="line"/>
			<point x="501" y="856"/>
			<point x="462" y="900"/>
			<point x="405" y="900" type="curve"/>
			<point x="351" y="900"/>
			<point x="301" y="858"/>
			<point x="294" y="806" type="curve"/>
			<point x="286" y="747"/>
			<point x="324" y="702"/>
			<point x="381" y="702" type="curve"/>
			<point x="436" y="702"/>
			<point x="485" y="744"/>
		</contour>
		<contour>
			<point x="451" y="803" type="curve"/>
			<point x="451" y="803" type="line"/>
			<point x="446" y="771"/>
			<point x="416" y="742"/>
			<point x="382" y="742" type="curve"/>
			<point x="352" y="742"/>
			<point x="329" y="769"/>
			<point x="333" y="799" type="curve"/>
			<point x="338" y="835"/>
			<point x="371" y="860"/>
			<point x="403" y="860" type="curve"/>
			<point x="435" y="860"/>
			<point x="455" y="837"/>
		</contour>
		<contour>
			<point x="401" y="742" type="curve"/>
			<point x="369" y="742" type="line"/>
			<point x="360" y="742"/>
			<point x="357" y="740"/>
			<point x="353" y="732" type="curve"/>
			<point x="3" y="10" type="line"/>
			<point x="1" y="5"/>
			<point x="5" y="0"/>
			<point x="11" y="0" type="curve"/>
			<point x="33" y="0" type="line" smooth="yes"/>
			<point x="39" y="0"/>
			<point x="41" y="1"/>
			<point x="44" y="6" type="curve"/>
			<point x="153" y="230" type="line" smooth="yes"/>
			<point x="155" y="235"/>
			<point x="158" y="238"/>
			<point x="164" y="238" type="curve"/>
			<point x="460" y="238" type="line" smooth="yes"/>
			<point x="466" y="238"/>
			<point x="467" y="237"/>
			<point x="468" y="232" type="curve"/>
			<point x="514" y="9" type="line" smooth="yes"/>
			<point x="514" y="3"/>
			<point x="518" y="0"/>
			<point x="525" y="0" type="curve"/>
			<point x="552" y="0" type="line" smooth="yes"/>
			<point x="559" y="0"/>
			<point x="561" y="3"/>
			<point x="560" y="9" type="curve"/>
			<point x="417" y="731" type="line"/>
			<point x="417" y="738"/>
			<point x="411" y="742"/>
		</contour>
		<contour>
			<point x="381" y="679" type="curve"/>
			<point x="459" y="289" type="line"/>
			<point x="460" y="283"/>
			<point x="457" y="278"/>
			<point x="449" y="278" type="curve"/>
			<point x="180" y="278" type="line" smooth="yes"/>
			<point x="174" y="278"/>
			<point x="174" y="278"/>
			<point x="178" y="285" type="curve"/>
			<point x="367" y="676" type="line" smooth="yes"/>
			<point x="373" y="690"/>
			<point x="379" y="692"/>
		</contour>
		<contour>
			<point x="459" y="964" type="curve"/>
			<point x="436" y="964" type="line"/>
			<point x="425" y="964"/>
			<point x="421" y="961"/>
			<point x="418" y="952" type="curve"/>
			<point x="389" y="875" type="line"/>
			<point x="427" y="875" type="line"/>
			<point x="469" y="947" type="line" smooth="yes"/>
			<point x="473" y="957"/>
			<point x="470" y="964"/>
		</contour>
	</outline>
</glyph>
<glyph name="apostrophemod" format="2">
  <advance width="129"/>
  <unicode hex="02BC"/>
  <outline>
    <contour>
      <point x="64" y="477" type="curve"/>
      <point x="64" y="477" type="line"/>
      <point x="80" y="477" type="line" smooth="yes"/>
      <point x="88" y="477"/>
      <point x="93" y="480"/>
      <point x="95" y="485" type="curve"/>
      <point x="147" y="611" type="line" smooth="yes"/>
      <point x="147" y="612"/>
      <point x="148" y="613"/>
      <point x="148" y="615" type="curve"/>
      <point x="165" y="737" type="line" smooth="yes"/>
      <point x="166" y="741"/>
      <point x="165" y="742"/>
      <point x="162" y="742" type="curve"/>
      <point x="119" y="742" type="line" smooth="yes"/>
      <point x="115" y="742"/>
      <point x="112" y="739"/>
      <point x="111" y="734" type="curve"/>
      <point x="95" y="621" type="line" smooth="yes"/>
      <point x="94" y="615"/>
      <point x="95" y="614"/>
      <point x="101" y="614" type="curve"/>
      <point x="106" y="614" type="line" smooth="yes"/>
      <point x="109" y="614"/>
      <point x="112" y="611"/>
      <point x="110" y="603" type="curve"/>
      <point x="61" y="483" type="line" smooth="yes"/>
      <point x="59" y="480"/>
      <point x="60" y="477"/>
    </contour>
  </outline>
</glyph>
<glyph name="tildecomb" format="2">
  <unicode hex="0303"/>
  <anchor x="-76" y="731" name="top"/>
  <anchor x="-104" y="530" name="_top"/>
  <outline>
    <contour>
      <point x="46" y="691" type="curve"/>
      <point x="46" y="691" type="line"/>
      <point x="51" y="694"/>
      <point x="51" y="696"/>
      <point x="50" y="700" type="curve"/>
      <point x="44" y="718" type="line" smooth="yes"/>
      <point x="42" y="724"/>
      <point x="39" y="727"/>
      <point x="30" y="723" type="curve"/>
      <point x="12" y="715"/>
      <point x="1" y="706"/>
      <point x="-22" y="706" type="curve"/>
      <point x="-65" y="706"/>
      <point x="-93" y="731"/>
      <point x="-138" y="731" type="curve"/>
      <point x="-167" y="731"/>
      <point x="-187" y="722"/>
      <point x="-209" y="707" type="curve"/>
      <point x="-212" y="705"/>
      <point x="-212" y="703"/>
      <point x="-210" y="698" type="curve"/>
      <point x="-204" y="682" type="line" smooth="yes"/>
      <point x="-201" y="675"/>
      <point x="-201" y="674"/>
      <point x="-193" y="676" type="curve"/>
      <point x="-179" y="680"/>
      <point x="-165" y="697"/>
      <point x="-134" y="697" type="curve"/>
      <point x="-94" y="697"/>
      <point x="-77" y="673"/>
      <point x="-24" y="673" type="curve"/>
      <point x="11" y="673"/>
      <point x="31" y="682"/>
    </contour>
  </outline>
</glyph>
<glyph name="hungarumlautcomb" format="2">
  <unicode hex="030B"/>
  <anchor x="-188" y="530" name="_top"/>
  <outline>
    <contour>
      <point x="-110" y="720" type="curve"/>
      <point x="-127" y="745" type="line"/>
      <point x="-130" y="749"/>
      <point x="-134" y="751"/>
      <point x="-139" y="746" type="curve"/>
      <point x="-273" y="615" type="line" smooth="yes"/>
      <point x="-275" y="613"/>
      <point x="-276" y="609"/>
      <point x="-273" y="604" type="curve"/>
      <point x="-265" y="592" type="line" smooth="yes"/>
      <point x="-262" y="587"/>
      <point x="-258" y="584"/>
      <point x="-253" y="589" type="curve"/>
      <point x="-113" y="707" type="line" smooth="yes"/>
      <point x="-105" y="713"/>
      <point x="-106" y="715"/>
    </contour>
    <contour>
      <point x="31" y="720" type="curve"/>
      <point x="14" y="745" type="line"/>
      <point x="11" y="749"/>
      <point x="7" y="751"/>
      <point x="2" y="746" type="curve"/>
      <point x="-132" y="615" type="line" smooth="yes"/>
      <point x="-134" y="613"/>
      <point x="-135" y="609"/>
      <point x="-132" y="604" type="curve"/>
      <point x="-124" y="592" type="line" smooth="yes"/>
      <point x="-121" y="587"/>
      <point x="-117" y="584"/>
      <point x="-112" y="589" type="curve"/>
      <point x="28" y="707" type="line" smooth="yes"/>
      <point x="36" y="713"/>
      <point x="35" y="715"/>
    </contour>
  </outline>
</glyph>
<glyph name="quoteright" format="2">
  <advance width="210"/>
  <unicode hex="2019"/>
  <outline>
    <contour>
      <point x="92" y="546" type="curve"/>
      <point x="92" y="546" type="line"/>
      <point x="109" y="546" type="line" smooth="yes"/>
      <point x="115" y="546"/>
      <point x="120" y="548"/>
      <point x="121" y="552" type="curve"/>
      <point x="205" y="669" type="line" smooth="yes"/>
      <point x="206" y="671"/>
      <point x="207" y="672"/>
      <point x="208" y="675" type="curve"/>
      <point x="216" y="737" type="line" smooth="yes"/>
      <point x="217" y="741"/>
      <point x="216" y="742"/>
      <point x="212" y="742" type="curve"/>
      <point x="139" y="742" type="line" smooth="yes"/>
      <point x="135" y="742"/>
      <point x="132" y="739"/>
      <point x="131" y="735" type="curve"/>
      <point x="121" y="666" type="line" smooth="yes"/>
      <point x="121" y="662"/>
      <point x="122" y="660"/>
      <point x="128" y="660" type="curve"/>
      <point x="145" y="660" type="line" smooth="yes"/>
      <point x="152" y="660"/>
      <point x="153" y="654"/>
      <point x="148" y="645" type="curve"/>
      <point x="89" y="552" type="line" smooth="yes"/>
      <point x="88" y="549"/>
      <point x="88" y="546"/>
    </contour>
  </outline>
</glyph>
<glyph name="quotedblleft" format="2">
  <advance width="356"/>
  <unicode hex="201C"/>
  <outline>
    <contour>
      <point x="250" y="546" type="curve"/>
      <point x="250" y="546" type="line"/>
      <point x="323" y="546" type="line" smooth="yes"/>
      <point x="327" y="546"/>
      <point x="331" y="549"/>
      <point x="331" y="553" type="curve"/>
      <point x="341" y="622" type="line" smooth="yes"/>
      <point x="342" y="626"/>
      <point x="341" y="628"/>
      <point x="335" y="628" type="curve"/>
      <point x="318" y="628" type="line" smooth="yes"/>
      <point x="311" y="628"/>
      <point x="310" y="634"/>
      <point x="314" y="643" type="curve"/>
      <point x="373" y="736" type="line" smooth="yes"/>
      <point x="375" y="739"/>
      <point x="374" y="742"/>
      <point x="370" y="742" type="curve"/>
      <point x="353" y="742" type="line" smooth="yes"/>
      <point x="347" y="742"/>
      <point x="343" y="740"/>
      <point x="341" y="736" type="curve"/>
      <point x="258" y="619" type="line" smooth="yes"/>
      <point x="256" y="617"/>
      <point x="255" y="616"/>
      <point x="255" y="613" type="curve"/>
      <point x="246" y="551" type="line" smooth="yes"/>
      <point x="246" y="547"/>
      <point x="246" y="546"/>
    </contour>
    <contour>
      <point x="104" y="546" type="curve"/>
      <point x="104" y="546" type="line"/>
      <point x="177" y="546" type="line" smooth="yes"/>
      <point x="181" y="546"/>
      <point x="185" y="549"/>
      <point x="185" y="553" type="curve"/>
      <point x="195" y="622" type="line" smooth="yes"/>
      <point x="196" y="626"/>
      <point x="195" y="628"/>
      <point x="189" y="628" type="curve"/>
      <point x="172" y="628" type="line" smooth="yes"/>
      <point x="165" y="628"/>
      <point x="164" y="634"/>
      <point x="168" y="643" type="curve"/>
      <point x="227" y="736" type="line" smooth="yes"/>
      <point x="229" y="739"/>
      <point x="228" y="742"/>
      <point x="224" y="742" type="curve"/>
      <point x="207" y="742" type="line" smooth="yes"/>
      <point x="201" y="742"/>
      <point x="197" y="740"/>
      <point x="195" y="736" type="curve"/>
      <point x="112" y="619" type="line" smooth="yes"/>
      <point x="110" y="617"/>
      <point x="109" y="616"/>
      <point x="109" y="613" type="curve"/>
      <point x="100" y="551" type="line" smooth="yes"/>
      <point x="100" y="547"/>
      <point x="100" y="546"/>
    </contour>
  </outline>
</glyph>
<glyph name="daggerdbl" format="2">
	<advance width="404"/>
	<unicode hex="2021"/>
	<outline>
		<contour>
			<point x="250" y="425" type="curve"/>
			<point x="250" y="425" type="line"/>
			<point x="421" y="418" type="line"/>
			<point x="425" y="418"/>
			<point x="426" y="419"/>
			<point x="426" y="423" type="curve"/>
			<point x="431" y="460" type="line" smooth="yes"/>
			<point x="432" y="463"/>
			<point x="429" y="466"/>
			<point x="424" y="466" type="curve"/>
			<point x="257" y="461" type="line" smooth="yes"/>
			<point x="251" y="461"/>
			<point x="251" y="462"/>
			<point x="252" y="468" type="curve"/>
			<point x="296" y="735" type="line" smooth="yes"/>
			<point x="297" y="739"/>
			<point x="294" y="742"/>
			<point x="291" y="742" type="curve"/>
			<point x="248" y="742" type="line" smooth="yes"/>
			<point x="244" y="742"/>
			<point x="243" y="741"/>
			<point x="242" y="736" type="curve"/>
			<point x="212" y="470" type="line" smooth="yes"/>
			<point x="211" y="464"/>
			<point x="210" y="461"/>
			<point x="203" y="461" type="curve"/>
			<point x="34" y="466" type="line" smooth="yes"/>
			<point x="29" y="466"/>
			<point x="28" y="465"/>
			<point x="28" y="462" type="curve"/>
			<point x="22" y="425" type="line" smooth="yes"/>
			<point x="22" y="421"/>
			<point x="25" y="418"/>
			<point x="29" y="418" type="curve"/>
			<point x="200" y="425" type="line"/>
			<point x="206" y="425"/>
			<point x="208" y="424"/>
			<point x="208" y="419" type="curve"/>
			<point x="171" y="160" type="line"/>
			<point x="171" y="155"/>
			<point x="166" y="152"/>
			<point x="160" y="152" type="curve"/>
			<point x="-10" y="159" type="line"/>
			<point x="-14" y="159"/>
			<point x="-15" y="158"/>
			<point x="-16" y="154" type="curve"/>
			<point x="-21" y="117" type="line" smooth="yes"/>
			<point x="-21" y="114"/>
			<point x="-19" y="111"/>
			<point x="-14" y="111" type="curve"/>
			<point x="156" y="116" type="line" smooth="yes"/>
			<point x="163" y="116"/>
			<point x="162" y="115"/>
			<point x="161" y="109" type="curve"/>
			<point x="117" y="-157" type="line" smooth="yes"/>
			<point x="116" y="-162"/>
			<point x="119" y="-165"/>
			<point x="123" y="-165" type="curve"/>
			<point x="166" y="-165" type="line" smooth="yes"/>
			<point x="169" y="-165"/>
			<point x="170" y="-164"/>
			<point x="170" y="-160" type="curve"/>
			<point x="201" y="107" type="line"/>
			<point x="202" y="113"/>
			<point x="204" y="116"/>
			<point x="210" y="116" type="curve"/>
			<point x="376" y="111" type="line" smooth="yes"/>
			<point x="381" y="111"/>
			<point x="382" y="112"/>
			<point x="383" y="115" type="curve"/>
			<point x="388" y="152" type="line" smooth="yes"/>
			<point x="389" y="156"/>
			<point x="386" y="159"/>
			<point x="382" y="159" type="curve"/>
			<point x="210" y="152" type="line"/>
			<point x="205" y="152"/>
			<point x="204" y="152"/>
			<point x="205" y="158" type="curve"/>
			<point x="241" y="417" type="line"/>
			<point x="242" y="423"/>
			<point x="245" y="425"/>
		</contour>
	</outline>
</glyph>
<glyph name="franc" format="2">
	<advance width="607"/>
	<unicode hex="20A3"/>
	<outline>
		<contour>
			<point x="318" y="159" type="curve"/>
			<point x="321" y="183" type="line"/>
			<point x="322" y="187"/>
			<point x="318" y="190"/>
			<point x="314" y="190" type="curve"/>
			<point x="-1" y="189" type="line" smooth="yes"/>
			<point x="-4" y="189"/>
			<point x="-5" y="188"/>
			<point x="-6" y="183" type="curve"/>
			<point x="-9" y="159" type="line" smooth="yes"/>
			<point x="-10" y="154"/>
			<point x="-7" y="151"/>
			<point x="-1" y="151" type="curve"/>
			<point x="308" y="152" type="line" smooth="yes"/>
			<point x="315" y="152"/>
			<point x="317" y="153"/>
		</contour>
		<contour>
			<point x="172" y="733" type="curve"/>
			<point x="172" y="733" type="line"/>
			<point x="70" y="11" type="line" smooth="yes"/>
			<point x="69" y="3"/>
			<point x="72" y="0"/>
			<point x="79" y="0" type="curve"/>
			<point x="109" y="0" type="line" smooth="yes"/>
			<point x="114" y="0"/>
			<point x="115" y="1"/>
			<point x="116" y="6" type="curve"/>
			<point x="161" y="332" type="line" smooth="yes"/>
			<point x="163" y="340"/>
			<point x="166" y="342"/>
			<point x="173" y="342" type="curve"/>
			<point x="521" y="342" type="line" smooth="yes"/>
			<point x="527" y="342"/>
			<point x="528" y="342"/>
			<point x="529" y="348" type="curve"/>
			<point x="532" y="374" type="line" smooth="yes"/>
			<point x="533" y="379"/>
			<point x="530" y="382"/>
			<point x="525" y="382" type="curve"/>
			<point x="176" y="382" type="line" smooth="yes"/>
			<point x="169" y="382"/>
			<point x="168" y="382"/>
			<point x="169" y="388" type="curve"/>
			<point x="212" y="692" type="line" smooth="yes"/>
			<point x="213" y="700"/>
			<point x="216" y="702"/>
			<point x="223" y="702" type="curve"/>
			<point x="601" y="702" type="line" smooth="yes"/>
			<point x="607" y="702"/>
			<point x="608" y="702"/>
			<point x="609" y="708" type="curve"/>
			<point x="613" y="734" type="line" smooth="yes"/>
			<point x="614" y="739"/>
			<point x="611" y="742"/>
			<point x="606" y="742" type="curve"/>
			<point x="181" y="742" type="line" smooth="yes"/>
			<point x="174" y="742"/>
			<point x="173" y="741"/>
		</contour>
	</outline>
</glyph>
<glyph name="won" format="2">
  <advance width="992"/>
  <unicode hex="20A9"/>
  <outline>
    <contour>
      <point x="1008" y="452" type="curve"/>
      <point x="1012" y="476" type="line"/>
      <point x="1012" y="480"/>
      <point x="1009" y="483"/>
      <point x="1005" y="483" type="curve"/>
      <point x="53" y="482" type="line" smooth="yes"/>
      <point x="50" y="482"/>
      <point x="49" y="481"/>
      <point x="49" y="476" type="curve"/>
      <point x="45" y="452" type="line" smooth="yes"/>
      <point x="45" y="447"/>
      <point x="47" y="444"/>
      <point x="53" y="444" type="curve"/>
      <point x="998" y="445" type="line" smooth="yes"/>
      <point x="1005" y="445"/>
      <point x="1007" y="446"/>
    </contour>
    <contour>
      <point x="986" y="292" type="curve"/>
      <point x="989" y="316" type="line"/>
      <point x="990" y="320"/>
      <point x="986" y="323"/>
      <point x="982" y="323" type="curve"/>
      <point x="31" y="322" type="line" smooth="yes"/>
      <point x="28" y="322"/>
      <point x="27" y="321"/>
      <point x="26" y="316" type="curve"/>
      <point x="23" y="292" type="line" smooth="yes"/>
      <point x="22" y="287"/>
      <point x="25" y="284"/>
      <point x="31" y="284" type="curve"/>
      <point x="976" y="285" type="line" smooth="yes"/>
      <point x="983" y="285"/>
      <point x="985" y="286"/>
    </contour>
    <component base="W" xOffset="-37"/>
  </outline>
</glyph>
<glyph name="euro" format="2">
  <advance width="567"/>
  <unicode hex="20AC"/>
  <guideline x="488" y="511" angle="90"/>
  <outline>
    <contour>
      <point x="336" y="-10" type="curve"/>
      <point x="336" y="-10" type="line"/>
      <point x="392" y="-10"/>
      <point x="446" y="5"/>
      <point x="493" y="32" type="curve"/>
      <point x="495" y="34"/>
      <point x="494" y="38"/>
      <point x="492" y="40" type="curve"/>
      <point x="477" y="67" type="line" smooth="yes"/>
      <point x="475" y="69"/>
      <point x="474" y="70"/>
      <point x="471" y="70" type="curve"/>
      <point x="434" y="47"/>
      <point x="391" y="33"/>
      <point x="342" y="33" type="curve"/>
      <point x="170" y="33"/>
      <point x="103" y="152"/>
      <point x="133" y="366" type="curve"/>
      <point x="165" y="590"/>
      <point x="269" y="709"/>
      <point x="433" y="709" type="curve"/>
      <point x="477" y="709"/>
      <point x="515" y="693"/>
      <point x="546" y="670" type="curve"/>
      <point x="548" y="666"/>
      <point x="553" y="665"/>
      <point x="557" y="669" type="curve"/>
      <point x="578" y="693" type="line" smooth="yes"/>
      <point x="583" y="698"/>
      <point x="581" y="702"/>
      <point x="576" y="705" type="curve"/>
      <point x="537" y="734"/>
      <point x="487" y="752"/>
      <point x="433" y="752" type="curve"/>
      <point x="247" y="752"/>
      <point x="119" y="611"/>
      <point x="85" y="370" type="curve"/>
      <point x="51" y="128"/>
      <point x="142" y="-10"/>
    </contour>
    <contour>
      <point x="385" y="442" type="curve"/>
      <point x="388" y="466" type="line"/>
      <point x="389" y="470"/>
      <point x="385" y="473"/>
      <point x="381" y="473" type="curve"/>
      <point x="16" y="472" type="line" smooth="yes"/>
      <point x="13" y="472"/>
      <point x="12" y="471"/>
      <point x="11" y="466" type="curve"/>
      <point x="8" y="442" type="line" smooth="yes"/>
      <point x="7" y="437"/>
      <point x="10" y="434"/>
      <point x="16" y="434" type="curve"/>
      <point x="375" y="435" type="line" smooth="yes"/>
      <point x="382" y="435"/>
      <point x="384" y="436"/>
    </contour>
    <contour>
      <point x="362" y="282" type="curve"/>
      <point x="366" y="306" type="line"/>
      <point x="366" y="310"/>
      <point x="363" y="313"/>
      <point x="359" y="313" type="curve"/>
      <point x="-6" y="312" type="line" smooth="yes"/>
      <point x="-9" y="312"/>
      <point x="-11" y="311"/>
      <point x="-11" y="306" type="curve"/>
      <point x="-15" y="282" type="line" smooth="yes"/>
      <point x="-15" y="277"/>
      <point x="-13" y="274"/>
      <point x="-7" y="274" type="curve"/>
      <point x="352" y="275" type="line" smooth="yes"/>
      <point x="359" y="275"/>
      <point x="362" y="276"/>
    </contour>
  </outline>
</glyph>
<glyph name="liraTurkish" format="2">
  <advance width="492"/>
  <unicode hex="20BA"/>
  <outline>
    <contour>
      <point x="79" y="0" type="curve"/>
      <point x="179" y="0" type="line"/>
      <point x="300" y="0"/>
      <point x="409" y="70"/>
      <point x="474" y="209" type="curve"/>
      <point x="475" y="214"/>
      <point x="473" y="217"/>
      <point x="471" y="218" type="curve"/>
      <point x="439" y="228" type="line" smooth="yes"/>
      <point x="436" y="229"/>
      <point x="435" y="229"/>
      <point x="433" y="228" type="curve"/>
      <point x="365" y="92"/>
      <point x="285" y="40"/>
      <point x="181" y="40" type="curve"/>
      <point x="128" y="40" type="line" smooth="yes"/>
      <point x="121" y="40"/>
      <point x="120" y="40"/>
      <point x="122" y="48" type="curve"/>
      <point x="217" y="731" type="line" smooth="yes"/>
      <point x="219" y="739"/>
      <point x="216" y="742"/>
      <point x="209" y="742" type="curve"/>
      <point x="181" y="742" type="line" smooth="yes"/>
      <point x="174" y="742"/>
      <point x="173" y="741"/>
      <point x="172" y="733" type="curve"/>
      <point x="70" y="11" type="line" smooth="yes"/>
      <point x="69" y="4"/>
      <point x="72" y="0"/>
    </contour>
    <contour>
      <point x="348" y="486" type="curve"/>
      <point x="342" y="511" type="line"/>
      <point x="341" y="515"/>
      <point x="338" y="518"/>
      <point x="332" y="517" type="curve"/>
      <point x="43" y="417" type="line" smooth="yes"/>
      <point x="38" y="415"/>
      <point x="39" y="412"/>
      <point x="40" y="407" type="curve"/>
      <point x="46" y="382" type="line" smooth="yes"/>
      <point x="47" y="376"/>
      <point x="50" y="373"/>
      <point x="57" y="375" type="curve"/>
      <point x="338" y="472" type="line" smooth="yes"/>
      <point x="348" y="476"/>
      <point x="349" y="479"/>
    </contour>
    <contour>
      <point x="325" y="319" type="curve"/>
      <point x="318" y="344" type="line"/>
      <point x="318" y="348"/>
      <point x="314" y="351"/>
      <point x="309" y="350" type="curve"/>
      <point x="20" y="250" type="line" smooth="yes"/>
      <point x="15" y="248"/>
      <point x="15" y="245"/>
      <point x="16" y="240" type="curve"/>
      <point x="23" y="215" type="line" smooth="yes"/>
      <point x="23" y="209"/>
      <point x="27" y="206"/>
      <point x="34" y="208" type="curve"/>
      <point x="315" y="305" type="line" smooth="yes"/>
      <point x="324" y="309"/>
      <point x="326" y="312"/>
    </contour>
  </outline>
</glyph>
<glyph name="product" format="2">
  <advance width="627"/>
  <unicode hex="220F"/>
  <outline>
    <contour>
      <point x="672" y="742" type="curve"/>
      <point x="672" y="742" type="line"/>
      <point x="87" y="742" type="line" smooth="yes"/>
      <point x="82" y="742"/>
      <point x="81" y="741"/>
      <point x="80" y="736" type="curve"/>
      <point x="76" y="708" type="line" smooth="yes"/>
      <point x="75" y="702"/>
      <point x="78" y="700"/>
      <point x="84" y="700" type="curve"/>
      <point x="178" y="700" type="line" smooth="yes"/>
      <point x="185" y="700"/>
      <point x="186" y="700"/>
      <point x="185" y="692" type="curve"/>
      <point x="89" y="11" type="line" smooth="yes"/>
      <point x="88" y="3"/>
      <point x="91" y="0"/>
      <point x="98" y="0" type="curve"/>
      <point x="126" y="0" type="line" smooth="yes"/>
      <point x="133" y="0"/>
      <point x="134" y="1"/>
      <point x="135" y="9" type="curve"/>
      <point x="231" y="690" type="line" smooth="yes"/>
      <point x="232" y="698"/>
      <point x="235" y="700"/>
      <point x="242" y="700" type="curve"/>
      <point x="509" y="700" type="line" smooth="yes"/>
      <point x="516" y="700"/>
      <point x="517" y="700"/>
      <point x="516" y="692" type="curve"/>
      <point x="420" y="11" type="line" smooth="yes"/>
      <point x="419" y="3"/>
      <point x="422" y="0"/>
      <point x="429" y="0" type="curve"/>
      <point x="457" y="0" type="line" smooth="yes"/>
      <point x="464" y="0"/>
      <point x="465" y="1"/>
      <point x="466" y="9" type="curve"/>
      <point x="562" y="690" type="line" smooth="yes"/>
      <point x="563" y="698"/>
      <point x="566" y="700"/>
      <point x="573" y="700" type="curve"/>
      <point x="667" y="700" type="line" smooth="yes"/>
      <point x="673" y="700"/>
      <point x="674" y="700"/>
      <point x="675" y="706" type="curve"/>
      <point x="679" y="734" type="line" smooth="yes"/>
      <point x="680" y="739"/>
      <point x="677" y="742"/>
    </contour>
  </outline>
</glyph>
<glyph name=".notdef" format="2">
  <advance width="736"/>
  <outline>
    <contour>
      <point x="566" y="-137" type="curve"/>
      <point x="566" y="-137" type="line"/>
      <point x="701" y="825" type="line" smooth="yes"/>
      <point x="703" y="838"/>
      <point x="696" y="847"/>
      <point x="685" y="847" type="curve"/>
      <point x="214" y="847" type="line" smooth="yes"/>
      <point x="203" y="847"/>
      <point x="195" y="840"/>
      <point x="193" y="825" type="curve"/>
      <point x="57" y="-139" type="line" smooth="yes"/>
      <point x="55" y="-156"/>
      <point x="61" y="-165"/>
      <point x="82" y="-165" type="curve"/>
      <point x="530" y="-165" type="line" smooth="yes"/>
      <point x="553" y="-165"/>
      <point x="563" y="-158"/>
    </contour>
    <contour>
      <point x="642" y="780" type="curve"/>
      <point x="520" y="-90" type="line"/>
      <point x="518" y="-107"/>
      <point x="507" y="-115"/>
      <point x="488" y="-115" type="curve"/>
      <point x="135" y="-115" type="line" smooth="yes"/>
      <point x="117" y="-115"/>
      <point x="113" y="-109"/>
      <point x="115" y="-95" type="curve"/>
      <point x="238" y="777" type="line" smooth="yes"/>
      <point x="240" y="789"/>
      <point x="249" y="797"/>
      <point x="258" y="797" type="curve"/>
      <point x="631" y="797" type="line" smooth="yes"/>
      <point x="640" y="797"/>
      <point x="644" y="791"/>
    </contour>
    <contour>
      <point x="211" y="806" type="line"/>
      <point x="486" y="-137" type="line"/>
      <point x="546" y="-132" type="line"/>
      <point x="266" y="833" type="line"/>
    </contour>
  </outline>
</glyph>
<glyph name="eight.dnom" format="2">
  <advance width="401"/>
  <outline>
    <contour>
      <point x="199" y="469" type="curve"/>
      <point x="199" y="469" type="line"/>
      <point x="106" y="469"/>
      <point x="29" y="406"/>
      <point x="29" y="322" type="curve" smooth="yes"/>
      <point x="29" y="278"/>
      <point x="48" y="263"/>
      <point x="77" y="244" type="curve" smooth="yes"/>
      <point x="82" y="241"/>
      <point x="80" y="238"/>
      <point x="76" y="235" type="curve" smooth="yes"/>
      <point x="33" y="205"/>
      <point x="-15" y="169"/>
      <point x="-15" y="100" type="curve" smooth="yes"/>
      <point x="-15" y="28"/>
      <point x="41" y="-10"/>
      <point x="130" y="-10" type="curve" smooth="yes"/>
      <point x="233" y="-10"/>
      <point x="312" y="37"/>
      <point x="312" y="125" type="curve" smooth="yes"/>
      <point x="312" y="188"/>
      <point x="271" y="211"/>
      <point x="244" y="223" type="curve" smooth="yes"/>
      <point x="238" y="226"/>
      <point x="239" y="228"/>
      <point x="243" y="232" type="curve"/>
      <point x="259" y="245"/>
      <point x="324" y="287"/>
      <point x="324" y="360" type="curve" smooth="yes"/>
      <point x="324" y="429"/>
      <point x="274" y="469"/>
    </contour>
    <contour>
      <point x="195" y="443" type="curve"/>
      <point x="195" y="443" type="line"/>
      <point x="258" y="443"/>
      <point x="295" y="411"/>
      <point x="295" y="361" type="curve" smooth="yes"/>
      <point x="295" y="299"/>
      <point x="224" y="233"/>
      <point x="192" y="241" type="curve" smooth="yes"/>
      <point x="124" y="257" type="line" smooth="yes"/>
      <point x="81" y="268"/>
      <point x="58" y="288"/>
      <point x="58" y="326" type="curve" smooth="yes"/>
      <point x="58" y="388"/>
      <point x="117" y="443"/>
    </contour>
    <contour>
      <point x="133" y="16" type="curve"/>
      <point x="133" y="16" type="line"/>
      <point x="58" y="16"/>
      <point x="14" y="49"/>
      <point x="14" y="98" type="curve" smooth="yes"/>
      <point x="14" y="175"/>
      <point x="104" y="232"/>
      <point x="122" y="227" type="curve" smooth="yes"/>
      <point x="218" y="202" type="line" smooth="yes"/>
      <point x="262" y="191"/>
      <point x="284" y="164"/>
      <point x="284" y="125" type="curve" smooth="yes"/>
      <point x="284" y="61"/>
      <point x="223" y="16"/>
    </contour>
  </outline>
</glyph>
<glyph name="eight.numr" format="2">
  <advance width="401"/>
  <outline>
    <contour>
      <point x="239" y="752" type="curve"/>
      <point x="239" y="752" type="line"/>
      <point x="146" y="752"/>
      <point x="69" y="689"/>
      <point x="69" y="605" type="curve" smooth="yes"/>
      <point x="69" y="561"/>
      <point x="88" y="546"/>
      <point x="117" y="527" type="curve" smooth="yes"/>
      <point x="122" y="524"/>
      <point x="120" y="521"/>
      <point x="116" y="518" type="curve" smooth="yes"/>
      <point x="73" y="488"/>
      <point x="25" y="452"/>
      <point x="25" y="383" type="curve" smooth="yes"/>
      <point x="25" y="311"/>
      <point x="81" y="273"/>
      <point x="170" y="273" type="curve" smooth="yes"/>
      <point x="273" y="273"/>
      <point x="352" y="320"/>
      <point x="352" y="408" type="curve" smooth="yes"/>
      <point x="352" y="471"/>
      <point x="311" y="494"/>
      <point x="284" y="506" type="curve" smooth="yes"/>
      <point x="278" y="509"/>
      <point x="279" y="511"/>
      <point x="283" y="515" type="curve"/>
      <point x="299" y="528"/>
      <point x="364" y="570"/>
      <point x="364" y="643" type="curve" smooth="yes"/>
      <point x="364" y="712"/>
      <point x="314" y="752"/>
    </contour>
    <contour>
      <point x="235" y="726" type="curve"/>
      <point x="235" y="726" type="line"/>
      <point x="298" y="726"/>
      <point x="335" y="694"/>
      <point x="335" y="644" type="curve" smooth="yes"/>
      <point x="335" y="582"/>
      <point x="264" y="516"/>
      <point x="232" y="524" type="curve" smooth="yes"/>
      <point x="164" y="540" type="line" smooth="yes"/>
      <point x="121" y="551"/>
      <point x="98" y="571"/>
      <point x="98" y="609" type="curve" smooth="yes"/>
      <point x="98" y="671"/>
      <point x="157" y="726"/>
    </contour>
    <contour>
      <point x="173" y="299" type="curve"/>
      <point x="173" y="299" type="line"/>
      <point x="98" y="299"/>
      <point x="54" y="332"/>
      <point x="54" y="381" type="curve" smooth="yes"/>
      <point x="54" y="458"/>
      <point x="144" y="515"/>
      <point x="162" y="510" type="curve" smooth="yes"/>
      <point x="258" y="485" type="line" smooth="yes"/>
      <point x="302" y="474"/>
      <point x="324" y="447"/>
      <point x="324" y="408" type="curve" smooth="yes"/>
      <point x="324" y="344"/>
      <point x="263" y="299"/>
    </contour>
  </outline>
</glyph>
<glyph name="five.numr" format="2">
  <advance width="401"/>
  <outline>
    <contour>
      <point x="369" y="743" type="curve" smooth="yes"/>
      <point x="119" y="743" type="line" smooth="yes"/>
      <point x="113" y="743"/>
      <point x="112" y="742"/>
      <point x="111" y="738" type="curve" smooth="yes"/>
      <point x="63" y="518" type="line"/>
      <point x="61" y="513"/>
      <point x="61" y="512"/>
      <point x="65" y="508" type="curve"/>
      <point x="78" y="498" type="line"/>
      <point x="81" y="496"/>
      <point x="83" y="496"/>
      <point x="87" y="497" type="curve"/>
      <point x="120" y="516"/>
      <point x="164" y="543"/>
      <point x="218" y="543" type="curve" smooth="yes"/>
      <point x="275" y="543"/>
      <point x="323" y="516"/>
      <point x="323" y="450" type="curve" smooth="yes"/>
      <point x="323" y="359"/>
      <point x="252" y="295"/>
      <point x="154" y="295" type="curve" smooth="yes"/>
      <point x="98" y="295"/>
      <point x="61" y="321"/>
      <point x="37" y="347" type="curve" smooth="yes"/>
      <point x="34" y="350"/>
      <point x="32" y="350"/>
      <point x="29" y="348" type="curve"/>
      <point x="17" y="337" type="line" smooth="yes"/>
      <point x="15" y="335"/>
      <point x="15" y="333"/>
      <point x="18" y="330" type="curve" smooth="yes"/>
      <point x="57" y="287"/>
      <point x="103" y="270"/>
      <point x="157" y="270" type="curve" smooth="yes"/>
      <point x="268" y="270"/>
      <point x="353" y="345"/>
      <point x="353" y="453" type="curve" smooth="yes"/>
      <point x="353" y="535"/>
      <point x="292" y="568"/>
      <point x="222" y="568" type="curve" smooth="yes"/>
      <point x="171" y="568"/>
      <point x="130" y="550"/>
      <point x="101" y="533" type="curve"/>
      <point x="98" y="531"/>
      <point x="95" y="533"/>
      <point x="96" y="538" type="curve" smooth="yes"/>
      <point x="134" y="711" type="line"/>
      <point x="135" y="714"/>
      <point x="137" y="716"/>
      <point x="140" y="716" type="curve" smooth="yes"/>
      <point x="364" y="716" type="line" smooth="yes"/>
      <point x="368" y="716"/>
      <point x="369" y="718"/>
      <point x="370" y="720" type="curve"/>
      <point x="374" y="737" type="line"/>
      <point x="376" y="741"/>
      <point x="374" y="743"/>
    </contour>
  </outline>
</glyph>
<glyph name="one.dnom" format="2">
  <advance width="299"/>
  <outline>
    <contour>
      <point x="156" y="26" type="curve"/>
      <point x="156" y="26" type="line"/>
      <point x="78" y="26" type="line" smooth="yes"/>
      <point x="77" y="26"/>
      <point x="75" y="28"/>
      <point x="76" y="30" type="curve"/>
      <point x="137" y="460" type="line"/>
      <point x="138" y="465"/>
      <point x="136" y="467"/>
      <point x="132" y="467" type="curve" smooth="yes"/>
      <point x="115" y="467" type="line" smooth="yes"/>
      <point x="110" y="467"/>
      <point x="107" y="467"/>
      <point x="100" y="464" type="curve" smooth="yes"/>
      <point x="10" y="421" type="line"/>
      <point x="6" y="420"/>
      <point x="5" y="417"/>
      <point x="4" y="413" type="curve"/>
      <point x="2" y="399" type="line"/>
      <point x="2" y="395"/>
      <point x="4" y="394"/>
      <point x="7" y="395" type="curve" smooth="yes"/>
      <point x="99" y="430" type="line" smooth="yes"/>
      <point x="102" y="431"/>
      <point x="104" y="430"/>
      <point x="103" y="427" type="curve"/>
      <point x="47" y="30" type="line"/>
      <point x="46" y="28"/>
      <point x="44" y="26"/>
      <point x="43" y="26" type="curve" smooth="yes"/>
      <point x="-46" y="26" type="line" smooth="yes"/>
      <point x="-49" y="26"/>
      <point x="-49" y="26"/>
      <point x="-50" y="23" type="curve"/>
      <point x="-52" y="4" type="line"/>
      <point x="-53" y="1"/>
      <point x="-52" y="0"/>
      <point x="-49" y="0" type="curve" smooth="yes"/>
      <point x="154" y="0" type="line" smooth="yes"/>
      <point x="156" y="0"/>
      <point x="157" y="1"/>
      <point x="158" y="4" type="curve"/>
      <point x="161" y="22" type="line"/>
      <point x="161" y="25"/>
      <point x="160" y="26"/>
    </contour>
  </outline>
</glyph>
<glyph name="seven.dnom" format="2">
  <advance width="365"/>
  <outline>
    <contour>
      <point x="338" y="467" type="curve" smooth="yes"/>
      <point x="43" y="467" type="line" smooth="yes"/>
      <point x="39" y="467"/>
      <point x="38" y="465"/>
      <point x="37" y="463" type="curve"/>
      <point x="33" y="445" type="line"/>
      <point x="32" y="442"/>
      <point x="33" y="440"/>
      <point x="36" y="440" type="curve" smooth="yes"/>
      <point x="299" y="440" type="line" smooth="yes"/>
      <point x="304" y="440"/>
      <point x="304" y="438"/>
      <point x="301" y="434" type="curve" smooth="yes"/>
      <point x="178" y="277"/>
      <point x="90" y="102"/>
      <point x="56" y="9" type="curve" smooth="yes"/>
      <point x="54" y="4"/>
      <point x="54" y="0"/>
      <point x="59" y="0" type="curve" smooth="yes"/>
      <point x="78" y="0" type="line" smooth="yes"/>
      <point x="83" y="0"/>
      <point x="85" y="3"/>
      <point x="86" y="8" type="curve"/>
      <point x="115" y="94"/>
      <point x="227" y="302"/>
      <point x="334" y="431" type="curve" smooth="yes"/>
      <point x="340" y="438"/>
      <point x="340" y="443"/>
      <point x="341" y="447" type="curve"/>
      <point x="343" y="462" type="line"/>
      <point x="343" y="465"/>
      <point x="341" y="467"/>
    </contour>
  </outline>
</glyph>
<glyph name="seven.numr" format="2">
  <advance width="365"/>
  <outline>
    <contour>
      <point x="376" y="742" type="curve" smooth="yes"/>
      <point x="81" y="742" type="line" smooth="yes"/>
      <point x="77" y="742"/>
      <point x="76" y="740"/>
      <point x="75" y="738" type="curve"/>
      <point x="71" y="720" type="line"/>
      <point x="70" y="717"/>
      <point x="71" y="715"/>
      <point x="74" y="715" type="curve" smooth="yes"/>
      <point x="337" y="715" type="line" smooth="yes"/>
      <point x="342" y="715"/>
      <point x="342" y="713"/>
      <point x="339" y="709" type="curve" smooth="yes"/>
      <point x="216" y="552"/>
      <point x="128" y="377"/>
      <point x="94" y="284" type="curve" smooth="yes"/>
      <point x="92" y="279"/>
      <point x="92" y="275"/>
      <point x="97" y="275" type="curve" smooth="yes"/>
      <point x="116" y="275" type="line" smooth="yes"/>
      <point x="121" y="275"/>
      <point x="123" y="278"/>
      <point x="124" y="283" type="curve"/>
      <point x="153" y="369"/>
      <point x="265" y="577"/>
      <point x="372" y="706" type="curve" smooth="yes"/>
      <point x="378" y="713"/>
      <point x="378" y="718"/>
      <point x="379" y="722" type="curve"/>
      <point x="381" y="737" type="line"/>
      <point x="381" y="740"/>
      <point x="379" y="742"/>
    </contour>
  </outline>
</glyph>
<glyph name="six.numr" format="2">
  <advance width="404"/>
  <outline>
    <contour>
      <point x="253" y="753" type="curve"/>
      <point x="253" y="753" type="line"/>
      <point x="138" y="753"/>
      <point x="60" y="661"/>
      <point x="38" y="510" type="curve" smooth="yes"/>
      <point x="35" y="487"/>
      <point x="33" y="466"/>
      <point x="33" y="446" type="curve" smooth="yes"/>
      <point x="33" y="335"/>
      <point x="84" y="274"/>
      <point x="172" y="274" type="curve" smooth="yes"/>
      <point x="267" y="274"/>
      <point x="344" y="347"/>
      <point x="344" y="440" type="curve" smooth="yes"/>
      <point x="344" y="506"/>
      <point x="300" y="554"/>
      <point x="212" y="554" type="curve" smooth="yes"/>
      <point x="157" y="554"/>
      <point x="115" y="535"/>
      <point x="77" y="518" type="curve" smooth="yes"/>
      <point x="73" y="516"/>
      <point x="69" y="515"/>
      <point x="69" y="519" type="curve" smooth="yes"/>
      <point x="69" y="521"/>
      <point x="69" y="524"/>
      <point x="70" y="528" type="curve"/>
      <point x="86" y="640"/>
      <point x="144" y="727"/>
      <point x="253" y="727" type="curve" smooth="yes"/>
      <point x="290" y="727"/>
      <point x="313" y="714"/>
      <point x="329" y="693" type="curve"/>
      <point x="332" y="688"/>
      <point x="335" y="686"/>
      <point x="337" y="688" type="curve"/>
      <point x="353" y="699" type="line" smooth="yes"/>
      <point x="356" y="701"/>
      <point x="356" y="703"/>
      <point x="354" y="705" type="curve"/>
      <point x="334" y="730"/>
      <point x="303" y="753"/>
    </contour>
    <contour>
      <point x="213" y="528" type="curve"/>
      <point x="213" y="528" type="line"/>
      <point x="280" y="528"/>
      <point x="315" y="487"/>
      <point x="315" y="435" type="curve" smooth="yes"/>
      <point x="315" y="362"/>
      <point x="250" y="300"/>
      <point x="176" y="300" type="curve" smooth="yes"/>
      <point x="92" y="300"/>
      <point x="61" y="377"/>
      <point x="61" y="438" type="curve" smooth="yes"/>
      <point x="61" y="468"/>
      <point x="63" y="482"/>
      <point x="83" y="494" type="curve" smooth="yes"/>
      <point x="116" y="513"/>
      <point x="174" y="528"/>
    </contour>
  </outline>
</glyph>
<glyph name="three.dnom" format="2">
  <advance width="399"/>
  <outline>
    <contour>
      <point x="43" y="403" type="curve"/>
      <point x="43" y="403" type="line"/>
      <point x="50" y="395" type="line"/>
      <point x="53" y="390"/>
      <point x="55" y="389"/>
      <point x="60" y="393" type="curve" smooth="yes"/>
      <point x="89" y="416"/>
      <point x="125" y="444"/>
      <point x="186" y="444" type="curve" smooth="yes"/>
      <point x="248" y="444"/>
      <point x="287" y="411"/>
      <point x="287" y="366" type="curve" smooth="yes"/>
      <point x="287" y="303"/>
      <point x="216" y="255"/>
      <point x="137" y="255" type="curve" smooth="yes"/>
      <point x="91" y="255" type="line" smooth="yes"/>
      <point x="88" y="255"/>
      <point x="86" y="254"/>
      <point x="86" y="251" type="curve"/>
      <point x="84" y="235" type="line"/>
      <point x="83" y="232"/>
      <point x="86" y="230"/>
      <point x="89" y="230" type="curve" smooth="yes"/>
      <point x="146" y="230" type="line" smooth="yes"/>
      <point x="209" y="230"/>
      <point x="270" y="199"/>
      <point x="270" y="136" type="curve" smooth="yes"/>
      <point x="270" y="62"/>
      <point x="202" y="17"/>
      <point x="116" y="17" type="curve" smooth="yes"/>
      <point x="67" y="17"/>
      <point x="21" y="32"/>
      <point x="-6" y="71" type="curve"/>
      <point x="-7" y="72"/>
      <point x="-9" y="72"/>
      <point x="-10" y="71" type="curve"/>
      <point x="-26" y="57" type="line"/>
      <point x="-28" y="55"/>
      <point x="-28" y="54"/>
      <point x="-26" y="52" type="curve" smooth="yes"/>
      <point x="4" y="19"/>
      <point x="33" y="-9"/>
      <point x="111" y="-9" type="curve" smooth="yes"/>
      <point x="232" y="-9"/>
      <point x="298" y="61"/>
      <point x="298" y="139" type="curve" smooth="yes"/>
      <point x="298" y="194"/>
      <point x="260" y="230"/>
      <point x="215" y="241" type="curve"/>
      <point x="209" y="242"/>
      <point x="210" y="245"/>
      <point x="214" y="246" type="curve"/>
      <point x="276" y="267"/>
      <point x="316" y="312"/>
      <point x="316" y="369" type="curve" smooth="yes"/>
      <point x="316" y="427"/>
      <point x="267" y="470"/>
      <point x="185" y="470" type="curve" smooth="yes"/>
      <point x="134" y="470"/>
      <point x="92" y="454"/>
      <point x="43" y="412" type="curve"/>
      <point x="40" y="409"/>
      <point x="42" y="406"/>
    </contour>
  </outline>
</glyph>
<glyph name="three.numr" format="2">
  <advance width="399"/>
  <outline>
    <contour>
      <point x="83" y="685" type="curve"/>
      <point x="83" y="685" type="line"/>
      <point x="90" y="677" type="line"/>
      <point x="93" y="672"/>
      <point x="95" y="671"/>
      <point x="100" y="675" type="curve" smooth="yes"/>
      <point x="129" y="698"/>
      <point x="165" y="726"/>
      <point x="226" y="726" type="curve" smooth="yes"/>
      <point x="288" y="726"/>
      <point x="327" y="693"/>
      <point x="327" y="648" type="curve" smooth="yes"/>
      <point x="327" y="585"/>
      <point x="256" y="537"/>
      <point x="177" y="537" type="curve" smooth="yes"/>
      <point x="131" y="537" type="line" smooth="yes"/>
      <point x="128" y="537"/>
      <point x="126" y="536"/>
      <point x="126" y="533" type="curve"/>
      <point x="124" y="517" type="line"/>
      <point x="123" y="514"/>
      <point x="126" y="512"/>
      <point x="129" y="512" type="curve" smooth="yes"/>
      <point x="186" y="512" type="line" smooth="yes"/>
      <point x="249" y="512"/>
      <point x="310" y="481"/>
      <point x="310" y="418" type="curve" smooth="yes"/>
      <point x="310" y="344"/>
      <point x="242" y="299"/>
      <point x="156" y="299" type="curve" smooth="yes"/>
      <point x="107" y="299"/>
      <point x="61" y="314"/>
      <point x="34" y="353" type="curve"/>
      <point x="33" y="354"/>
      <point x="31" y="354"/>
      <point x="30" y="353" type="curve"/>
      <point x="14" y="339" type="line"/>
      <point x="12" y="337"/>
      <point x="12" y="336"/>
      <point x="14" y="334" type="curve" smooth="yes"/>
      <point x="44" y="301"/>
      <point x="73" y="273"/>
      <point x="151" y="273" type="curve" smooth="yes"/>
      <point x="272" y="273"/>
      <point x="338" y="343"/>
      <point x="338" y="421" type="curve" smooth="yes"/>
      <point x="338" y="476"/>
      <point x="300" y="512"/>
      <point x="255" y="523" type="curve"/>
      <point x="249" y="524"/>
      <point x="250" y="527"/>
      <point x="254" y="528" type="curve"/>
      <point x="316" y="549"/>
      <point x="356" y="594"/>
      <point x="356" y="651" type="curve" smooth="yes"/>
      <point x="356" y="709"/>
      <point x="307" y="752"/>
      <point x="225" y="752" type="curve" smooth="yes"/>
      <point x="174" y="752"/>
      <point x="132" y="736"/>
      <point x="83" y="694" type="curve"/>
      <point x="80" y="691"/>
      <point x="82" y="688"/>
    </contour>
  </outline>
</glyph>
<glyph name="two.dnom" format="2">
  <advance width="384"/>
  <outline>
    <contour>
      <point x="140" y="192" type="curve" smooth="yes"/>
      <point x="-27" y="42" type="line"/>
      <point x="-34" y="35"/>
      <point x="-37" y="31"/>
      <point x="-38" y="21" type="curve" smooth="yes"/>
      <point x="-39" y="8" type="line"/>
      <point x="-40" y="2"/>
      <point x="-38" y="0"/>
      <point x="-32" y="0" type="curve" smooth="yes"/>
      <point x="237" y="0" type="line" smooth="yes"/>
      <point x="241" y="0"/>
      <point x="241" y="2"/>
      <point x="242" y="5" type="curve"/>
      <point x="244" y="21" type="line"/>
      <point x="245" y="25"/>
      <point x="243" y="26"/>
      <point x="239" y="26" type="curve" smooth="yes"/>
      <point x="2" y="26" type="line" smooth="yes"/>
      <point x="-3" y="26"/>
      <point x="-5" y="30"/>
      <point x="0" y="33" type="curve"/>
      <point x="153" y="169" type="line" smooth="yes"/>
      <point x="230" y="239"/>
      <point x="287" y="292"/>
      <point x="287" y="369" type="curve" smooth="yes"/>
      <point x="287" y="443"/>
      <point x="229" y="473"/>
      <point x="169" y="473" type="curve" smooth="yes"/>
      <point x="120" y="473"/>
      <point x="60" y="453"/>
      <point x="18" y="406" type="curve"/>
      <point x="15" y="402"/>
      <point x="14" y="400"/>
      <point x="16" y="398" type="curve" smooth="yes"/>
      <point x="31" y="384" type="line" smooth="yes"/>
      <point x="33" y="382"/>
      <point x="35" y="382"/>
      <point x="38" y="386" type="curve" smooth="yes"/>
      <point x="73" y="429"/>
      <point x="126" y="447"/>
      <point x="164" y="447" type="curve" smooth="yes"/>
      <point x="211" y="447"/>
      <point x="258" y="421"/>
      <point x="258" y="367" type="curve" smooth="yes"/>
      <point x="258" y="304"/>
      <point x="202" y="247"/>
    </contour>
  </outline>
</glyph>
<glyph name="zero.dnom" format="2">
  <advance width="416"/>
  <outline>
    <contour>
      <point x="195" y="468" type="curve"/>
      <point x="195" y="468" type="line"/>
      <point x="105" y="468"/>
      <point x="23" y="390"/>
      <point x="0" y="227" type="curve" smooth="yes"/>
      <point x="-3" y="204"/>
      <point x="-5" y="182"/>
      <point x="-5" y="162" type="curve" smooth="yes"/>
      <point x="-5" y="45"/>
      <point x="50" y="-11"/>
      <point x="130" y="-11" type="curve" smooth="yes"/>
      <point x="221" y="-11"/>
      <point x="302" y="65"/>
      <point x="325" y="226" type="curve" smooth="yes"/>
      <point x="328" y="250"/>
      <point x="330" y="271"/>
      <point x="330" y="291" type="curve" smooth="yes"/>
      <point x="330" y="411"/>
      <point x="274" y="468"/>
    </contour>
    <contour>
      <point x="132" y="15" type="curve"/>
      <point x="132" y="15" type="line"/>
      <point x="68" y="15"/>
      <point x="25" y="59"/>
      <point x="25" y="161" type="curve" smooth="yes"/>
      <point x="25" y="181"/>
      <point x="27" y="202"/>
      <point x="30" y="226" type="curve" smooth="yes"/>
      <point x="51" y="376"/>
      <point x="117" y="442"/>
      <point x="194" y="442" type="curve" smooth="yes"/>
      <point x="258" y="442"/>
      <point x="300" y="397"/>
      <point x="300" y="295" type="curve" smooth="yes"/>
      <point x="300" y="276"/>
      <point x="298" y="253"/>
      <point x="295" y="228" type="curve" smooth="yes"/>
      <point x="274" y="79"/>
      <point x="210" y="15"/>
    </contour>
  </outline>
</glyph>
